<?xml version="1.0" encoding="utf-8"?>
<!-- Generator: Adobe Illustrator 25.0.0, SVG Export Plug-In . SVG Version: 6.00 Build 0)  -->
<svg version="1.1" id="Layer_1" xmlns="http://www.w3.org/2000/svg" xmlns:xlink="http://www.w3.org/1999/xlink" x="0px" y="0px"
	 viewBox="0 0 61 61" style="enable-background:new 0 0 61 61;" xml:space="preserve">
<g id="yQSHfj.tif_1_">
	<g>
		<g>
			<path d="M56.57,53.45c-0.29,0.07-0.5,0.13-0.72,0.18c-0.07,0.02-0.15,0-0.22,0c-16.22,0-32.44,0-48.66-0.01
				c-0.28,0-0.57-0.09-0.85-0.13c0-0.04,0-0.08-0.01-0.11c0.44-0.33,0.87-0.65,1.31-0.98c5.47-4.08,10.94-8.15,16.4-12.23
				c0.23-0.17,0.37-0.18,0.6,0c1.88,1.47,3.78,2.93,5.67,4.4c0.76,0.59,1.66,0.59,2.43-0.01c1.89-1.46,3.79-2.92,5.67-4.4
				c0.22-0.17,0.36-0.17,0.58,0c5.82,4.34,11.64,8.68,17.46,13.02C56.32,53.25,56.41,53.32,56.57,53.45z"/>
		</g>
		<g>
			<path d="M56.52,24.63c-3.19,2.35-6.36,4.69-9.61,7.08c0-0.2,0-0.33,0-0.46c0-5.51,0-11.03,0-16.54c0-0.23-0.02-0.48-0.09-0.69
				c-0.18-0.52-0.57-0.82-1.12-0.88c-0.14-0.02-0.28-0.01-0.42-0.01c-9.31,0-18.63,0-27.94,0c-0.12,0-0.24,0-0.35,0.01
				c-0.73,0.05-1.25,0.59-1.28,1.32c0,0.12,0,0.24,0,0.35c0,5.47,0,10.94,0,16.42c0,0.14,0,0.28,0,0.5
				c-3.24-2.38-6.42-4.73-9.63-7.09C7.05,23.9,8,23.19,8.96,22.49c1.67-1.23,3.33-2.46,5-3.68c0.21-0.15,0.3-0.31,0.3-0.58
				c-0.01-1.2-0.01-2.4-0.01-3.6c0.01-1.8,1.17-2.96,2.97-2.96c2.02,0,4.03,0,6.05,0c0.26,0,0.47-0.07,0.68-0.23
				c2.03-1.51,4.07-3.01,6.11-4.51c0.89-0.66,1.58-0.66,2.46-0.01c2.02,1.49,4.04,2.97,6.06,4.47c0.27,0.2,0.53,0.28,0.86,0.28
				c2.01-0.01,4.01-0.01,6.02-0.01c1.69,0,2.88,1.18,2.89,2.87c0.01,1.21,0.01,2.42-0.01,3.64c0,0.3,0.1,0.48,0.34,0.66
				c2.61,1.91,5.2,3.82,7.8,5.74C56.49,24.58,56.5,24.59,56.52,24.63z"/>
		</g>
		<g>
			<path d="M57,52.22c-5.85-4.36-11.66-8.69-17.51-13.05c5.84-4.52,11.65-9.02,17.51-13.55C57,34.5,57,43.33,57,52.22z"/>
		</g>
		<g>
			<path d="M5.61,52.22c0-8.89,0-17.71,0-26.61c5.86,4.53,11.66,9.03,17.51,13.55C17.28,43.52,11.47,47.85,5.61,52.22z"/>
		</g>
		<g>
			<path d="M32.03,30.91c-0.32,0.23-0.61,0.47-0.92,0.65c-1.35,0.82-2.97,0.47-3.86-0.84c-0.92-1.36-0.99-2.83-0.48-4.34
				c0.47-1.38,1.23-2.55,2.58-3.24c1.4-0.72,2.72-0.5,3.8,0.64c0.04,0.04,0.05,0.09,0.08,0.14c0.03-0.01,0.07-0.02,0.1-0.03
				c0.05-0.21,0.11-0.42,0.14-0.63c0.04-0.22,0.14-0.31,0.37-0.31c0.39,0.01,0.77,0.01,1.16,0c0.28-0.01,0.35,0.11,0.29,0.38
				c-0.45,2.1-0.9,4.19-1.34,6.29c-0.04,0.18-0.01,0.48,0.09,0.54c0.16,0.1,0.44,0.11,0.62,0.03c1.11-0.48,1.84-1.35,2.28-2.46
				c0.93-2.35,0.03-4.84-2.19-6.07c-2.73-1.51-6.45-0.85-8.32,1.58c-1.68,2.18-2,4.63-1.05,7.21c0.52,1.41,1.56,2.34,2.95,2.87
				c1.99,0.76,4.02,0.84,6.07,0.28c1.18-0.33,2.19-0.97,2.98-1.93c0.09-0.11,0.26-0.18,0.4-0.19c0.38-0.03,0.77-0.01,1.16-0.01
				c0.33,0,0.39,0.1,0.23,0.39c-0.6,1.04-1.46,1.82-2.47,2.44c-1.7,1.04-3.57,1.28-5.51,1.19c-1.1-0.05-2.18-0.22-3.21-0.61
				c-2.5-0.94-4.02-2.71-4.49-5.35c-0.47-2.67,0.12-5.12,1.76-7.29c1.37-1.81,3.27-2.69,5.5-2.87c1.4-0.12,2.77,0.01,4.07,0.55
				c4.41,1.82,5.42,7.42,1.94,10.73c-0.9,0.85-1.93,1.38-3.2,1.33C32.83,31.98,32.26,31.71,32.03,30.91z M32.76,26.53
				c0-0.13,0.01-0.26,0-0.39c-0.08-0.78-0.37-1.45-1.16-1.75c-0.7-0.27-1.36-0.09-1.86,0.44c-1.13,1.17-1.59,2.59-1.3,4.19
				c0.25,1.37,1.46,1.82,2.61,1.05c0.04-0.03,0.09-0.06,0.13-0.1C32.28,29.1,32.68,27.89,32.76,26.53z"/>
		</g>
	</g>
</g>
</svg>
