<?xml version="1.0" encoding="utf-8"?>
<!-- Generator: Adobe Illustrator 25.0.0, SVG Export Plug-In . SVG Version: 6.00 Build 0)  -->
<svg version="1.1" id="Layer_1" xmlns="http://www.w3.org/2000/svg" xmlns:xlink="http://www.w3.org/1999/xlink" x="0px" y="0px"
	 viewBox="0 0 61 61" style="enable-background:new 0 0 61 61;" xml:space="preserve">
<g>
	<g>
		<g id="_x36_k5c9O_9_">
			<g>
				<g>
					<path d="M30,54.95c-4.18-0.16-7.98,0.27-12.11-0.22c-7.63-0.92-12.2-5.89-12.43-13.59c-0.22-7.44-0.23-14.89,0-22.32
						c0.26-8.27,5.77-13.61,14.04-13.79c7.23-0.16,14.47-0.15,21.7-0.01C49.57,5.19,55.1,10.63,55.32,19
						c0.19,7.31,0.19,14.64,0,21.95c-0.22,8.37-5.73,13.74-14.12,14c-3.59,0.11-7.19,0.02-10.79,0.02C30.25,54.95,30,54.95,30,54.95
						z M30.25,9.27C30.25,9.27,30.11,9.2,30.25,9.27c-2.17,0-4.2,0.04-6.37,0.08c-1.5,0.02-3.01,0.11-4.51,0.19
						c-5.61,0.3-9.24,3.68-9.38,9.26c-0.19,7.43-0.18,14.88,0,22.31c0.13,5.54,3.68,9.12,9.22,9.25c7.43,0.19,14.88,0.18,22.31,0
						c5.54-0.13,9.12-3.68,9.25-9.22c0.19-7.43,0.17-14.88,0.01-22.31c-0.11-5.16-3.02-8.46-8.11-9.08
						C38.62,9.27,34.34,9.45,30.25,9.27z"/>
				</g>
				<g>
					<path d="M43.31,29.96c0.01,7.13-5.78,12.94-12.91,12.95C23.28,42.93,17.45,37.12,17.45,30c-0.01-7.13,5.79-12.95,12.91-12.95
						C37.49,17.04,43.3,22.84,43.31,29.96z M30.44,21.57c-4.59-0.03-8.42,3.73-8.47,8.31c-0.05,4.64,3.77,8.5,8.4,8.5
						c4.58,0,8.39-3.79,8.41-8.37C38.8,25.43,35.02,21.6,30.44,21.57z"/>
				</g>
				<g>
					<path d="M43.84,13.53c1.65,0,3.01,1.38,2.99,3.03c-0.01,1.66-1.39,3.02-3.03,3.01c-1.65-0.01-3.02-1.4-3.01-3.04
						C40.8,14.88,42.18,13.52,43.84,13.53z"/>
				</g>
			</g>
		</g>
	</g>
</g>
</svg>
