<?xml version="1.0" encoding="utf-8"?>
<!-- Generator: Adobe Illustrator 25.0.0, SVG Export Plug-In . SVG Version: 6.00 Build 0)  -->
<svg version="1.1" id="Layer_1" xmlns="http://www.w3.org/2000/svg" xmlns:xlink="http://www.w3.org/1999/xlink" x="0px" y="0px"
	 viewBox="0 0 300 612" style="enable-background:new 0 0 300 612;" xml:space="preserve">
<style type="text/css">
	.st0{fill:#2AB3B7;}
	.st1{fill:#D1B155;}
	.st2{fill:#FAAA63;}
	.st3{fill:#15434C;}
	.st4{fill:none;stroke:#000000;stroke-width:0.75;stroke-miterlimit:10;}
</style>
<path class="st0" d="M96.61,249.45c-2.42-0.32-5.16-0.55-7.05,1c-3.77,3.1-0.55,9.35-2.04,14c-1.78,5.57-9.13,6.53-14.98,6.48
	c-9.65-0.08-19.29-0.17-28.94-0.25c-4.92-0.04-10.03-0.04-14.46,2.08c-5.72,2.73-9.5,9.07-9.2,15.41
	c0.3,6.33,4.68,12.28,10.64,14.45c4.08,1.49,8.56,1.28,12.9,1.06c7.45-0.39,14.9-0.78,22.34-1.17c0.55,6.78,1.67,13.98,6.18,19.08
	s13.51,6.72,17.95,1.56c1.26-1.46,2.07-3.34,3.63-4.49c5.53-4.08,12.31,4.38,19.18,4.46c4.61,0.05,8.46-3.96,9.79-8.37
	s0.71-9.15,0.07-13.71c10.11,0.34,20.22,0.67,30.33,1.01c1.78,0.06,3.7,0.08,5.17-0.92c1.86-1.27,2.4-3.73,2.79-5.95
	c0.9-5.14,1.8-10.43,0.75-15.54c-1.04-5.11-4.49-10.09-9.55-11.36c-5.09-1.28-12.49,0.19-13.96-4.84c-0.68-2.33,0.63-4.74,0.77-7.16
	c0.27-4.6-3.89-8.51-8.37-9.6C119.64,244,108.68,251.02,96.61,249.45z"/>
<path class="st1" d="M211.11,304.84c-5.45-2.05-12.9-2.05-15.67,3.07c-1.48,2.74-1.09,6.1-1.97,9.09
	c-1.39,4.72-5.73,7.92-10.06,10.25s-9.05,4.25-12.39,7.86s-4.76,9.65-1.57,13.39c1.87,2.19,4.83,3.09,7.03,4.95
	c5.64,4.75,4.54,13.48,4,20.84c-0.54,7.35,1.79,16.87,9.11,17.76c9.43,1.15,14.25-13.44,23.74-14.05c4.64-0.3,8.65,2.92,12.72,5.18
	c4.52,2.51,9.81,3.98,14.91,3.08s9.87-4.51,11.23-9.5c1.05-3.85,0.03-7.92-0.22-11.91c-0.26-3.98,0.62-8.59,4.05-10.62
	c1.44-0.85,3.14-1.13,4.68-1.78c5.26-2.22,7.79-8.73,6.71-14.33c-1.08-5.61-5.06-10.28-9.66-13.65c-8.92-6.53-17.53-4.56-27.03-7.83
	C223.36,314.11,218.54,307.64,211.11,304.84z"/>
<path class="st2" d="M153.19,311.18c-0.68-5.43-0.8-11.29,2.08-15.95c2.87-4.65,9.74-7.15,14.02-3.75c2.45,1.95,3.5,5.28,5.96,7.23
	c2.94,2.34,7.4,2.29,10,5.01c2.46,2.59,2.29,6.73,1.22,10.14s-2.87,6.65-3.17,10.21c-0.32,3.73,0.68,8.38-2.39,10.53
	c-4.65,3.24-11.72-4.22-16.2-0.76c-2.14,1.65-2.22,4.91-4.01,6.94c-3.61,4.09-10.17,0.45-15.62,0.24
	c-3.56-0.14-6.97,1.36-10.51,1.83c-3.53,0.47-7.82-0.61-9.08-3.94c-1.38-3.67,1.43-8.64-1.42-11.33c-1.46-1.39-3.83-1.38-5.38-2.67
	c-3.08-2.55-0.54-7.96,3.19-9.41s7.93-0.65,11.89-1.22c5.51-0.79,10.53-4.44,12.98-9.44"/>
<path class="st2" d="M97.08,188.93c3.51-2.07,7.22-3.82,11.05-5.23c2.79-1.03,6.93-1.24,7.74,1.62c0.34,1.2-0.13,2.45-0.34,3.68
	c-1.01,6.07,4.6,11.97,3.09,17.94c-1.25,4.93-7.11,8.4-6.51,13.45c-1.85,0.07-3.7,0.14-5.56,0.21c0.01,1.4,0.03,2.79,0.04,4.19
	c2.4-0.14,5.23-0.08,6.63,1.86c1.68,2.32-0.17,5.89-2.88,6.83s-5.71-0.02-8.26-1.34c-2.55-1.32-4.96-3.01-7.75-3.67
	c-0.77-0.18-1.6-0.28-2.35-0.02c-1.99,0.69-2.36,3.27-3.3,5.16c-1.58,3.21-5.78,4.83-9.11,3.52s-5.28-5.37-4.25-8.79
	c0.42-1.39,1.28-2.82,0.81-4.21c-0.45-1.33-1.9-1.97-3.14-2.6c-4.8-2.45-8.47-7.02-9.82-12.24c-0.38-1.47-0.58-3.07-0.03-4.49
	c4.07-10.51,16.05,5.02,21.62,3.89C92,207.24,89.33,193.49,97.08,188.93z"/>
<path class="st3" d="M206.58,265.23c1.21,2.96,3.73,5.19,5.25,8.01c1.52,2.81,1.62,6.98-1.15,8.58c-2.8,1.61-6.2-0.49-8.79-2.42
	c-2.59-1.93-6.24-3.78-8.8-1.82c-1.23,0.95-1.77,2.52-2.24,4c-0.81,2.55-1.62,5.09-2.43,7.64c-5,2.37-11.76-0.52-13.51-5.77
	c-0.69-2.05-0.68-4.3-1.48-6.32c-1.56-3.94-5.85-6.12-10-6.96c-2.65-0.53-5.98-1.16-6.66-3.78c-0.64-2.48,1.79-4.7,4.19-5.59
	c6.1-2.28,12.45-0.19,18.08,2.35c4.32,1.95,12.57,9.24,17.45,8.49c5.78-0.88,3.97-3.44,2.7-8.93c-1.19-5.18-4.66-12.73-0.7-17.57
	c2.78-3.4,8.48-4.27,10.47,0.34C211.31,250.95,203.82,258.5,206.58,265.23z"/>
<g>
	<path class="st4" d="M282.86,366.95c-0.26,4.12-4.9,6.56-9.01,6.86s-8.34-0.69-12.34,0.34c2.19,6.37-1.1,14.13-7.2,16.98
		c-3.23,1.51-7.15,1.84-9.66,4.38c-1.47,1.48-2.26,3.57-3.88,4.88c-2.6,2.1-6.38,1.57-9.62,0.75c-5.14-1.31-10.97-3.95-11.89-9.18
		c-0.47-2.72,0.03-6.46-2.59-7.34c-0.82-0.28-1.71-0.12-2.56,0.04c-5.54,1.03-11.08,2.07-16.61,3.1c-4.43,0.83-9.6,2.27-11.08,6.52
		c-1.42,4.1,1.85,8.67,5.96,10.05c4.11,1.38,8.63,0.34,12.68-1.2c1.27-0.48,2.56-1.04,3.49-2.02c0.97-1.02,1.44-2.4,2.16-3.61
		c1.52-2.57,4.23-4.39,7.18-4.84c-0.72-1.54-0.54-3.46,0.45-4.85c-2.31-0.54-3.73,2.37-4.54,4.6c-1.13,3.12-2.84,6.03-5.02,8.55
		c-0.83,0.96-1.79,1.91-3.02,2.25c-1.1,0.31-2.27,0.11-3.39-0.1c-2.44-0.45-4.87-0.9-7.31-1.35c-4.63-0.86-10.07-2.37-11.56-6.84
		c2.1-3.33,4.63-6.97,8.5-7.66c4.83-0.86,9.57,3.33,14.37,2.26c4.75-1.06,6.75-8.09,3.27-11.5c-1.35-1.32-3.19-2.02-4.67-3.2
		c-2.07-1.64-3.32-4.07-5.02-6.1c-3.48-4.15-9-6.48-14.4-6.1c-0.1,0.81-0.4,1.59-0.85,2.27c-0.46,0.68-1.08,1.25-1.62,1.87
		c-3.62,4.13-3.58,10.98,0.09,15.06c2.21,2.45,5.56,4.07,6.65,7.18c-0.57,3.06-4.57,4.31-7.52,3.34s-5.17-3.36-7.57-5.34
		c-2.4-1.97-5.1-3.61-7.19-5.91c-2.09-2.3-3.51-5.54-2.62-8.52c6.25,0.16,12.47,1.63,18.13,4.31c-4.46,2.55-10.15-0.16-13.9-3.69
		c-1.36-1.28-2.68-2.82-2.84-4.69c-0.16-1.86,1.42-3.94,3.26-3.58c-3.06-2.81-8.41-2.57-11.21,0.5c1.91,1.79,5.56,0.94,6.48-1.51
		c-2.79-0.2-5.58-0.4-8.38-0.59c0.02-2.78,3.09-4.36,4.74-6.6c2.68-3.65,1.35-8.79,2.32-13.21c0.94-4.26,3.98-7.69,6.91-10.92
		c-6.44,2.57-10.6,9.9-9.5,16.74c0.23,1.43,0.67,2.85,1.54,4c1.66,2.21,4.53,3.08,7.2,3.81c4.93,1.35,9.86,2.7,14.79,4.05
		c1.46,0.4,3.19,0.75,4.36-0.21c-0.7-4.4-5.67-6.98-10.12-6.84s-8.57,2.2-12.76,3.73c-1.08,0.4-2.24,0.76-3.37,0.55
		c-1.13-0.21-2.21-1.21-2.1-2.35c0.05-0.55,0.35-1.04,0.68-1.48c3.83-5.15,11.68-5.5,17.61-3.03s10.68,7.05,16.05,10.57
		c1.49,0.98,3.07,1.9,4.16,3.31s1.58,3.46,0.64,4.98c-1.88-0.21-2.83-2.99-1.47-4.31c1.33,1.5,2.73,3.15,2.9,5.14
		c0.17,2-1.6,4.23-3.54,3.71c-0.7-0.19-1.28-0.7-1.75-1.25c-2.83-3.29-2.51-8.8,0.66-11.75c0.41-0.38,0.89-0.73,1.44-0.75
		c0.47-0.02,0.91,0.21,1.3,0.48c4.54,3.07,4.13,10.28,8.18,13.98c1.51,1.38,3.54,2.16,4.83,3.74c1.22,1.49,1.61,3.47,2.15,5.32
		c1.67,5.8,5.27,11.2,10.52,14.16s12.22,3.13,17.14-0.34c1.99-1.4,3.58-3.31,5.47-4.85c2.94-2.41,6.66-3.98,8.9-7.05
		c3.45-4.73,2.34-11.5,5.09-16.66c-0.43,4.45,1.58,9.35-0.7,13.19c-2.86,4.81-10.06,4.25-14.71,7.37c-2.28,1.52-3.92,3.94-6.37,5.16
		c-3.17,1.58-7.05,0.83-10.2-0.78c-3.16-1.61-5.85-3.98-8.87-5.83c-2.19-1.34-4.63-2.49-6.1-4.59s-1.37-5.58,0.94-6.7
		c5.61,2.48,12.15,2.77,17.96,0.79c3.32-1.13,7.5-2.79,9.87-0.2c-0.88,3.97-4.15,7.31-8.11,8.26c-3.95,0.95-8.39-0.53-10.98-3.67
		c-0.79-0.96-1.44-2.15-1.3-3.39c0.33-2.95,4.82-4.54,4.31-7.46c-2.96,0.85-5.78,2.16-8.32,3.89c-0.35,0.24-0.71,0.5-0.87,0.89
		c-0.54,1.32,1.44,2.17,2.87,2.18c11.3,0.06,22.58-4.14,31.08-11.59c7.37,4.03,15.82,8.19,23.83,5.64c2.52-0.81,4.81-2.25,6.8-3.99
		c5.65-4.93,8.97-13.24,6.05-20.15c-9.08,2.57-17.22,7.65-25.22,12.66c-3.55,2.22-7.1,4.44-10.64,6.67
		c0.48-4.29,3.13-8.09,6.44-10.86c3.31-2.77,7.25-4.64,11.15-6.49c6.12-2.9,12.24-5.8,18.37-8.69c0.27,5.4-2.87,10.3-5.89,14.78
		c-0.54,0.81-1.09,1.61-1.63,2.42c-0.5,0.74-1.02,1.5-1.77,2c-1.07,0.7-2.43,0.74-3.59,1.28c-1.84,0.86-2.94,2.86-4.77,3.72
		c-2.16,1.01-4.67,0.21-7.05,0.01c-2.38-0.2-5.38,0.83-5.55,3.21c-0.03,0.41,0.04,0.84,0.3,1.15c0.48,0.58,1.37,0.54,2.12,0.43
		c6.9-1.03,13.58-3.55,19.44-7.35c1.43-0.93,2.85-1.98,3.68-3.46c0.95-1.71,0.99-3.77,0.94-5.73c-0.14-6.04-1.7-13.24-7.36-15.37
		c-0.73-0.27-1.52-0.45-2.3-0.35c-1.59,0.19-2.82,1.42-3.93,2.58c-2.26,2.37-4.53,4.75-6.79,7.12c-2.19,2.29-5.17,4.8-8.15,3.72
		c-1.73-0.62-2.81-2.28-4.06-3.63s-3.17-2.51-4.84-1.75c-0.77,6.61-1.53,13.26-1.09,19.89c2.31-4.65,4.61-9.3,6.92-13.96
		c0.59-1.18,1.66-2.58,2.9-2.11c-0.07,4.78-1.77,9.37-3.45,13.84c-1.53,4.08-4.3,8.97-8.63,8.43c2.47-4.66,4.95-9.32,7.42-13.98
		c1.09-2.05,2.23-4.16,4.08-5.55c2.21-1.66,5.09-2.05,7.63-3.15c5.19-2.24,8.56-7.23,11.64-11.97c1.28-1.97,2.62-4.17,2.31-6.5
		c-0.22-1.68-1.27-3.12-2.28-4.47c-1.75-2.35-3.73-4.85-6.58-5.56c-5.82-1.44-10.29,5.16-15.91,7.24c-1.12-2.32,1.16-5.07,3.67-5.61
		c2.52-0.54,5.09,0.33,7.62,0.8c3.57,0.67,7.67,0.74,10.1,3.44c2.99,3.33,0.71,9.66-3.71,10.33c-1.65,0.25-3.32-0.17-4.99-0.23
		c-5.21-0.19-10.3,3.63-11.58,8.69c-9.17,1.63-16.68-7.91-25.92-9.15c-0.18,1.17,0.1,2.39,0.75,3.37c2.45,0.41,5.14-1.76,7.26-0.46
		c1.83,1.12,1.63,3.92,3,5.57c1.58,1.9,4.79,1.53,6.65-0.1s2.71-4.09,3.49-6.44c0.99-2.98,1.97-5.97,2.96-8.95
		c0.91-2.75,1.82-5.75,0.85-8.48s-4.76-4.53-6.87-2.54c-0.93,0.88-1.26,2.21-1.55,3.46c-1.5,6.53-3,13.05-4.5,19.58
		c6.88,0,13.27-5.84,13.87-12.7c0.13-1.48,0.05-3.07,0.82-4.35c2.54-4.21,10.01-0.18,13.72-3.41c2.83-2.46,1.37-7.09-0.62-10.27
		c-1.62-2.6-3.46-5.06-5.49-7.35c-0.77-0.86-1.61-1.73-2.7-2.09c-1.28-0.42-2.66-0.07-3.96,0.27c-6.1,1.63-12.2,3.27-18.31,4.9
		c-1.91,0.51-4.15,1.35-4.58,3.28c-0.3,1.36,0.45,2.7,0.73,4.06c0.98,4.81-3.86,8.7-5.39,13.35c-1.05,3.17-0.51,6.62,0.03,9.91
		c-3.01-5.32-2.08-12.58,2.18-16.97c0.74-0.76,1.61-1.53,1.78-2.58c0.13-0.81-0.21-1.61-0.39-2.42c-0.45-2,0.08-4.11-0.26-6.14
		c-0.79-4.65-6.45-7.47-10.93-5.99s-7.32,6.33-7.3,11.04c0.01,3.45,1.31,6.75,2.58,9.96c1.63,4.11,3.27,8.22,4.9,12.33
		c0.58,1.47,1.39,3.13,2.94,3.45c2.31,0.47,3.89-2.58,3.42-4.89c-0.47-2.31-2.06-4.28-2.55-6.58c-0.47-2.2,0.08-4.63-0.92-6.65
		c-0.65-1.32-1.86-2.25-2.88-3.3c-2.83-2.9-4.35-7.03-4.08-11.07c-2.69,0.96-5.68,0.53-8.47,1.13c-1.96,0.42-3.77,1.34-5.63,2.05
		c-7.23,2.77-15.2,2.51-22.87,3.55c-1.23,0.17-2.47,0.38-3.57,0.94c-0.8,0.4-1.49,0.98-2.1,1.63c-3.89,4.13-3.95,10.45-3.78,16.12
		c0.09,3.13,0.24,6.45,2,9.04c1.86,2.74,5.11,4.09,8.06,5.58c4.68,2.35,9.04,5.36,13.97,7.11s10.76,2.05,15.1-0.89
		c-4.89,2.37-10.62-0.36-15.34-3.05c-9.19-5.23-19.02-11.27-22.7-21.18c-1.79-4.82-1.63-10.89,2.15-14.37
		c5.83-5.37,15.4-1.35,23-3.62c2.83-0.85,5.48-2.6,8.43-2.58c4.41,0.04,7.8,4.05,9.46,8.14c1.66,4.09,2.27,8.62,4.52,12.42
		c2.05,3.46,5.52,6.82,4.62,10.73c-2.51-0.58-5.21-0.31-7.56,0.75c0.98-2.46,1.97-5,1.93-7.65c-0.04-2.65-1.37-5.46-3.82-6.44
		c-1.34-0.54-2.84-0.47-4.28-0.41c-3.71,0.18-7.42,0.36-11.13,0.54c-2.7,0.13-5.84,0.5-7.27,2.8c1.63,5.44,4.16,10.62,7.45,15.25
		c1.36,1.91,3.33,3.92,5.64,3.51c1.3-0.23,2.33-1.21,3.46-1.89c1.13-0.69,2.73-1.04,3.69-0.13c0.83,1.12,0.14,2.84-1.04,3.57
		s-2.66,0.76-4.06,0.76c-4.41-0.01-9.16-0.17-12.68-2.84c-3.52-2.66-4.63-8.8-1-11.3c3.4-2.34,7.97-0.08,11.44,2.17
		c2.9,1.88,4.97,3.29,8.34,3.71c2.13,0.27,6.6-0.64,5.7,3.07c1.02,0.07,2.13-0.42,2.53-1.46c0.39-1.02-0.32-2.39-1.41-2.43
		c-1.09-0.04-1.82,1.64-0.94,2.28c1.77-0.81,3.08-2.56,3.36-4.49c1.41-1.43,4.38,0.22,3.9,2.17c-0.48,1.95-3.87,2.05-4.46,0.13
		c2.89-0.94,6.16-0.67,8.85,0.74c0.08-1.4-0.89-2.8-2.23-3.22s-2.93,0.18-3.67,1.37c0.12,1.34,1.83,1.93,3.15,1.67
		c1.32-0.26,2.51-1.03,3.85-1.13c1.34-0.1,2.93,0.96,2.59,2.26c-0.13,0.49-0.51,0.87-0.93,1.15c-1.54,1-3.83,0.58-4.91-0.9
		c2.18-0.46,4.36-0.93,6.53-1.39c-1.05-1.25-2.82-1.87-4.42-1.54c2.14-0.47,4.39-0.46,6.53,0.04c-0.63,1.86-2.01,3.44-3.75,4.33
		c0.17,2.22,2.65,3.82,2.62,6.05c-0.02,1.59-1.32,2.83-2.51,3.88c-1.89,1.65-3.95,3.37-6.44,3.62c-3.07,0.3-6.16-2.12-6.59-5.18
		c-0.37,1.42-2.46,0.9-3.86,0.45c-3.4-1.09-7.46,0.57-9.13,3.72c-0.71-0.25-1.26-0.9-1.39-1.64c-1.33,1.33-2.31,3-2.82,4.81
		c-0.15,0.55-0.26,1.15-0.04,1.67c0.7,1.63,3.16,0.67,4.91,0.95c4.02,0.66,3.53,7.9,7.44,9.02c1.15,0.33,2.46,0,3.53,0.53
		c1.48,0.72,2.7,2.95,4.13,2.12c0.48-0.28,0.71-0.85,1.03-1.31c1.36-1.99,4.29-2.03,6.63-1.43c2.34,0.6,4.73,1.64,7.07,1.07
		c2.99-0.73,4.75-3.77,5.95-6.61c1.92-4.52,3.32-9.26,4.17-14.09c0.41-2.36,0.61-5.05-0.94-6.87c-1.62-1.89-4.83-1.96-6.7-0.31
		s-2.28,4.61-1.16,6.83c0.64,1.27,1.74,2.49,1.5,3.9c-0.12,0.68-0.55,1.27-0.96,1.82c-1.18,1.58-2.37,3.15-3.55,4.73
		c-0.87,1.16-2.02,2.44-3.46,2.27c-2.28-0.28-2.6-3.7-4.57-4.87c-1.77-1.05-4.18,0.09-6.06-0.75c-1.74-0.78-2.34-2.9-3.37-4.51
		c-1.03-1.61-3.66-2.7-4.68-1.07"/>
	<path class="st4" d="M226.94,350.02c-0.59-0.37-1.21-0.74-1.89-0.86s-1.47,0.06-1.88,0.63s-0.22,1.52,0.44,1.74
		c0.58,0.19,1.22-0.25,1.46-0.81s0.2-1.2,0.15-1.81c0.89-0.24,1.93,0.4,2.1,1.31c0.05,0.28,0.02,0.6-0.2,0.79
		c-0.13,0.11-0.31,0.16-0.48,0.19c-1.01,0.21-2.05,0.26-3.07,0.16c-0.31-0.03-0.64-0.08-0.9-0.26c-0.83-0.59-0.3-2,0.6-2.49
		c1.4-0.77,3.37-0.17,4.11,1.25c0.69-0.52,0.93-1.5,0.7-2.34c-0.23-0.83-0.88-1.5-1.65-1.9c-0.7-0.36-1.66-0.47-2.2,0.11
		c-0.65,0.71-0.1,1.99,0.81,2.3s1.93-0.11,2.68-0.71c0.6-0.49,1.34-1.14,2.04-0.8c0.25,0.12,0.43,0.36,0.59,0.59
		c0.31,0.46,0.58,0.95,0.81,1.46c0.05,0.12,0.1,0.25,0.07,0.37c-0.07,0.21-0.34,0.26-0.56,0.26c-1.39,0-2.77-0.55-3.78-1.5
		c0.2,1.39,1.25,2.66,2.63,2.94c1.37,0.28,2.93-0.59,3.26-1.95c0.1-0.43,0.09-0.9-0.14-1.28c-0.12-0.2-0.29-0.37-0.49-0.5
		c-0.82-0.55-2.07-0.36-2.63,0.45s-0.21,2.11,0.7,2.48c0.92,0.36,2.1-0.45,2.02-1.43c1.01,1.42,1.56,3.15,1.56,4.89
		c0,0.17-0.02,0.37-0.15,0.48c-0.12,0.1-0.3,0.09-0.46,0.07c-1.26-0.17-2.46-0.7-3.43-1.52c-0.68,0.54-0.67,1.68-0.07,2.31
		c0.6,0.62,1.64,0.71,2.4,0.3s1.25-1.23,1.38-2.09c0.06-0.39,0.05-0.79-0.09-1.16c-0.31-0.81-1.3-1.28-2.11-1.01
		c-0.82,0.27-1.34,1.24-1.11,2.07c0.07,0.25,0.2,0.49,0.41,0.65c0.61,0.47,1.63-0.07,1.71-0.83s-0.61-1.47-1.38-1.57
		s-1.53,0.31-2.04,0.88c-0.51,0.58-0.81,1.31-1.06,2.04c-0.32,0.93-0.58,1.9-0.52,2.87c0.06,0.98,0.48,1.98,1.29,2.53
		c-1.73,0.22-3.76,1.1-5.04-0.09c-1.07-0.99-0.64-3,0.64-3.71s2.98-0.27,4.02,0.76c0.32,0.32,0.73,0.73,1.16,0.57
		c0.23-0.75,0.28-1.59-0.06-2.31c-0.33-0.71-1.11-1.25-1.89-1.13c-0.91,0.13-1.52,1.11-1.49,2.03s0.57,1.75,1.22,2.4
		c0.5,0.5,1.21,0.95,1.88,0.72c0.39-0.13,0.67-0.47,0.9-0.82c0.69-1.05,1.09-2.28,1.13-3.54c0.56-0.26,1.27,0.24,1.34,0.86
		c0.07,0.62-0.38,1.2-0.94,1.46s-1.22,0.24-1.83,0.14c-0.13-0.02-0.27-0.05-0.36-0.15c-0.18-0.21-0.01-0.53,0.2-0.7
		c1.42-1.15,3.91,0.4,5.25-0.84c0.39-0.37,0.58-0.9,0.71-1.42c0.3-1.19,0.29-2.68-0.71-3.39c-0.87,0.73-1.17,2.05-0.72,3.09
		c0.51,0.1,1.02-0.24,1.27-0.69s0.28-0.99,0.26-1.5c-0.03-0.94-0.22-1.91-0.79-2.66c-0.57-0.75-1.58-1.21-2.47-0.92
		c-0.45,0.15-0.75,0.92-0.28,0.99c0.64-0.69,0.73-1.78,0.34-2.64c-0.39-0.86-1.18-1.49-2.05-1.85c-1-0.42-2.2-0.5-3.14,0.03
		c-0.95,0.53-1.52,1.77-1.08,2.76c0.7,0.06,1.27-0.74,1.11-1.43c-0.15-0.69-0.84-1.16-1.54-1.24s-1.39,0.16-2.02,0.48
		c-0.68,0.35-1.35,0.84-1.61,1.57c-0.26,0.72,0.09,1.69,0.84,1.86s1.48-0.92,0.9-1.43c1.13,0.99,1.05,2.95-0.01,4.02
		c-1.06,1.06-2.83,1.23-4.18,0.58c-0.72-0.34-1.41-1.09-1.17-1.86c0.23-0.73,1.16-0.98,1.92-0.89s1.51,0.39,2.27,0.28
		c-0.22-1.01-1.07-1.85-2.08-2.06s-2.12,0.23-2.72,1.07c0.03,0.9,1,1.49,1.89,1.61c0.9,0.12,1.82-0.05,2.7,0.17
		c0.88,0.22,1.71,1.09,1.43,1.94c-0.14,0.43-0.53,0.73-0.92,0.95c-2.03,1.13-4.84,0.6-6.31-1.2c0.99-0.21,2-0.41,3-0.23
		c0.99,0.18,1.97,0.84,2.2,1.82c0.08,0.32,0.07,0.66,0.21,0.95c0.4,0.84,1.83,0.7,2.25-0.14c0.42-0.83-0.02-1.9-0.77-2.46
		s-1.73-0.69-2.66-0.72c-0.91,2.19,0.35,5.02,2.58,5.82c0.88-1.73,1.68-3.5,2.38-5.31c1.38,0.96,1.69,3.15,0.63,4.46
		s-3.26,1.47-4.49,0.32c1.06-1.22,2.65-1.87,4.25-2.1s3.22-0.08,4.83,0.08c0.84-1.2,0.1-2.84-0.73-4.05
		c-0.73-1.07-1.9-2.22-3.13-1.8c-1.2,0.72-1.09,2.82,0.17,3.41c0.78,0.37,1.7,0.18,2.51-0.11s1.62-0.67,2.48-0.67
		s1.81,0.52,1.92,1.37c0.05,0.34-0.05,0.69-0.2,0.99c-0.6,1.18-2.23,1.7-3.4,1.09c-0.06-0.35-0.12-0.69-0.19-1.04
		c1.38-1.53,3.94-1.81,5.62-0.62"/>
</g>
<g>
	<path class="st4" d="M153.2,297.23c-0.24,3.75-4.46,5.97-8.2,6.24c-3.75,0.27-7.59-0.63-11.23,0.31c1.99,5.8-1,12.86-6.55,15.45
		c-2.94,1.38-6.51,1.68-8.79,3.99c-1.33,1.35-2.06,3.25-3.53,4.44c-2.36,1.91-5.81,1.43-8.75,0.68c-4.68-1.19-9.99-3.6-10.82-8.35
		c-0.43-2.47,0.02-5.88-2.36-6.68c-0.75-0.25-1.56-0.11-2.33,0.04c-5.04,0.94-10.08,1.88-15.12,2.82
		c-4.03,0.75-8.74,2.06-10.08,5.94c-1.29,3.73,1.68,7.89,5.42,9.15c3.74,1.26,7.86,0.31,11.54-1.09c1.16-0.44,2.33-0.94,3.18-1.84
		c0.88-0.93,1.31-2.18,1.97-3.29c1.39-2.34,3.85-4,6.54-4.41c-0.65-1.4-0.49-3.15,0.41-4.41c-2.1-0.5-3.4,2.16-4.13,4.19
		c-1.03,2.84-2.59,5.49-4.56,7.78c-0.76,0.88-1.63,1.73-2.75,2.05c-1,0.28-2.07,0.1-3.09-0.09c-2.22-0.41-4.44-0.82-6.65-1.23
		c-4.22-0.78-9.17-2.16-10.52-6.23c1.91-3.03,4.21-6.34,7.74-6.97c4.4-0.78,8.71,3.03,13.07,2.06c4.32-0.97,6.15-7.37,2.98-10.46
		c-1.23-1.2-2.9-1.84-4.25-2.91c-1.89-1.49-3.03-3.71-4.57-5.55c-3.16-3.77-8.19-5.9-13.1-5.55c-0.09,0.74-0.36,1.45-0.78,2.06
		c-0.42,0.62-0.98,1.14-1.47,1.7c-3.3,3.76-3.26,9.99,0.09,13.71c2.01,2.23,5.06,3.7,6.05,6.53c-0.52,2.78-4.15,3.92-6.84,3.04
		s-4.7-3.06-6.89-4.86c-2.18-1.8-4.65-3.28-6.55-5.37c-1.9-2.09-3.19-5.04-2.38-7.75c5.69,0.14,11.35,1.49,16.5,3.92
		c-4.06,2.32-9.24-0.15-12.65-3.36c-1.24-1.17-2.44-2.57-2.59-4.27c-0.15-1.7,1.3-3.58,2.97-3.25c-2.79-2.55-7.65-2.33-10.2,0.46
		c1.74,1.63,5.06,0.85,5.9-1.38c-2.54-0.18-5.08-0.36-7.62-0.54c0.01-2.53,2.82-3.97,4.31-6.01c2.44-3.32,1.22-8,2.11-12.03
		c0.85-3.87,3.62-7,6.29-9.94c-5.86,2.34-9.65,9.01-8.65,15.24c0.21,1.3,0.61,2.59,1.4,3.65c1.51,2.02,4.12,2.8,6.56,3.47
		c4.49,1.23,8.97,2.46,13.46,3.68c1.33,0.36,2.9,0.68,3.97-0.19c-0.63-4-5.16-6.35-9.21-6.23s-7.8,2-11.61,3.39
		c-0.99,0.36-2.04,0.69-3.07,0.5s-2.01-1.1-1.91-2.14c0.05-0.5,0.32-0.94,0.62-1.34c3.49-4.69,10.63-5,16.03-2.76
		c5.4,2.25,9.72,6.42,14.61,9.62c1.36,0.89,2.79,1.73,3.78,3.01s1.43,3.15,0.58,4.53c-1.72-0.2-2.58-2.72-1.34-3.92
		c1.21,1.36,2.48,2.86,2.64,4.68c0.16,1.82-1.46,3.85-3.22,3.37c-0.64-0.17-1.16-0.64-1.59-1.14c-2.57-2.99-2.29-8.01,0.6-10.69
		c0.37-0.34,0.81-0.66,1.31-0.68c0.43-0.01,0.83,0.19,1.18,0.43c4.13,2.79,3.76,9.36,7.44,12.73c1.37,1.26,3.22,1.97,4.4,3.4
		c1.11,1.36,1.47,3.16,1.95,4.85c1.52,5.28,4.79,10.19,9.57,12.89s11.12,2.85,15.6-0.31c1.81-1.28,3.26-3.01,4.97-4.41
		c2.68-2.19,6.06-3.62,8.1-6.42c3.14-4.31,2.13-10.46,4.64-15.16c-0.39,4.05,1.44,8.51-0.64,12.01c-2.6,4.38-9.16,3.87-13.39,6.7
		c-2.07,1.39-3.57,3.58-5.8,4.7c-2.88,1.44-6.42,0.75-9.29-0.71s-5.32-3.62-8.07-5.31c-1.99-1.22-4.21-2.27-5.55-4.18
		s-1.25-5.08,0.85-6.1c5.1,2.26,11.06,2.52,16.34,0.72c3.02-1.03,6.83-2.54,8.99-0.19c-0.8,3.62-3.78,6.66-7.38,7.52
		c-3.6,0.87-7.64-0.49-9.99-3.34c-0.72-0.87-1.31-1.96-1.18-3.08c0.3-2.69,4.38-4.13,3.92-6.79c-2.69,0.77-5.26,1.97-7.57,3.54
		c-0.32,0.22-0.65,0.46-0.79,0.81c-0.49,1.2,1.31,1.98,2.61,1.99c10.29,0.06,20.55-3.77,28.29-10.55c6.71,3.67,14.4,7.46,21.68,5.13
		c2.3-0.73,4.38-2.05,6.19-3.63c5.14-4.49,8.16-12.05,5.5-18.34c-8.27,2.34-15.67,6.96-22.96,11.52c-3.23,2.02-6.46,4.05-9.69,6.07
		c0.43-3.9,2.85-7.37,5.86-9.88c3.01-2.52,6.6-4.23,10.15-5.91c5.57-2.64,11.14-5.27,16.72-7.91c0.25,4.91-2.62,9.37-5.36,13.45
		c-0.49,0.73-0.99,1.47-1.48,2.2c-0.46,0.68-0.93,1.37-1.61,1.82c-0.97,0.64-2.21,0.68-3.26,1.17c-1.67,0.78-2.67,2.6-4.34,3.39
		c-1.96,0.92-4.25,0.19-6.42,0.01c-2.16-0.18-4.9,0.75-5.05,2.92c-0.03,0.37,0.04,0.76,0.28,1.05c0.44,0.53,1.25,0.49,1.93,0.39
		c6.28-0.94,12.36-3.23,17.69-6.69c1.3-0.84,2.59-1.8,3.35-3.15c0.87-1.56,0.9-3.43,0.86-5.22c-0.13-5.5-1.55-12.05-6.7-13.99
		c-0.67-0.25-1.38-0.41-2.09-0.32c-1.45,0.17-2.57,1.29-3.58,2.34c-2.06,2.16-4.12,4.32-6.18,6.48c-1.99,2.09-4.7,4.37-7.42,3.39
		c-1.57-0.57-2.56-2.08-3.7-3.31s-2.89-2.28-4.41-1.59c-0.7,6.01-1.39,12.07-0.99,18.11c2.1-4.23,4.2-8.47,6.3-12.7
		c0.53-1.07,1.51-2.35,2.64-1.92c-0.07,4.35-1.61,8.52-3.14,12.6c-1.39,3.71-3.92,8.16-7.85,7.67c2.25-4.24,4.5-8.48,6.76-12.73
		c0.99-1.86,2.03-3.79,3.72-5.05c2.01-1.51,4.64-1.87,6.94-2.86c4.72-2.04,7.79-6.58,10.59-10.9c1.17-1.79,2.38-3.79,2.1-5.91
		c-0.2-1.53-1.15-2.84-2.08-4.07c-1.6-2.14-3.4-4.42-5.99-5.06c-5.29-1.31-9.36,4.7-14.48,6.59c-1.02-2.11,1.05-4.61,3.34-5.11
		c2.29-0.49,4.63,0.3,6.94,0.73c3.25,0.61,6.98,0.67,9.19,3.13c2.72,3.03,0.65,8.79-3.38,9.4c-1.5,0.23-3.03-0.16-4.54-0.21
		c-4.74-0.17-9.37,3.3-10.54,7.91c-8.35,1.49-15.18-7.2-23.59-8.32c-0.16,1.06,0.09,2.18,0.69,3.07c2.23,0.37,4.68-1.6,6.61-0.42
		c1.67,1.02,1.48,3.56,2.73,5.06c1.44,1.73,4.36,1.4,6.05-0.09c1.69-1.48,2.47-3.73,3.17-5.86c0.9-2.71,1.79-5.43,2.69-8.14
		c0.83-2.5,1.66-5.23,0.77-7.71c-0.89-2.48-4.34-4.12-6.25-2.31c-0.85,0.8-1.15,2.01-1.41,3.15c-1.37,5.94-2.73,11.88-4.1,17.82
		c6.27,0,12.08-5.32,12.63-11.56c0.12-1.35,0.04-2.8,0.74-3.96c2.31-3.84,9.11-0.16,12.49-3.1c2.57-2.24,1.24-6.45-0.56-9.35
		c-1.48-2.36-3.15-4.6-5-6.69c-0.7-0.78-1.46-1.58-2.46-1.9c-1.16-0.38-2.43-0.07-3.61,0.25c-5.55,1.49-11.11,2.97-16.66,4.46
		c-1.74,0.47-3.78,1.23-4.17,2.99c-0.27,1.23,0.41,2.45,0.67,3.69c0.89,4.38-3.51,7.91-4.91,12.15c-0.95,2.88-0.47,6.02,0.03,9.02
		c-2.74-4.84-1.89-11.45,1.98-15.44c0.67-0.69,1.47-1.39,1.62-2.35c0.11-0.74-0.19-1.47-0.35-2.2c-0.41-1.82,0.07-3.74-0.24-5.59
		c-0.72-4.23-5.87-6.8-9.95-5.46c-4.08,1.35-6.66,5.76-6.65,10.05c0.01,3.14,1.19,6.15,2.35,9.06c1.49,3.74,2.97,7.48,4.46,11.22
		c0.53,1.34,1.27,2.85,2.68,3.14c2.1,0.43,3.54-2.35,3.12-4.45c-0.43-2.1-1.87-3.89-2.32-5.99c-0.43-2.01,0.07-4.22-0.84-6.05
		c-0.59-1.2-1.69-2.04-2.62-3c-2.57-2.64-3.96-6.4-3.71-10.08c-2.45,0.87-5.17,0.48-7.71,1.03c-1.78,0.38-3.43,1.22-5.13,1.87
		c-6.58,2.52-13.83,2.28-20.81,3.23c-1.12,0.15-2.25,0.34-3.25,0.85c-0.72,0.37-1.36,0.89-1.92,1.49c-3.54,3.76-3.6,9.51-3.44,14.67
		c0.08,2.85,0.22,5.87,1.82,8.23c1.69,2.49,4.65,3.73,7.34,5.08c4.26,2.14,8.23,4.88,12.72,6.47c4.49,1.59,9.8,1.86,13.74-0.81
		c-4.45,2.16-9.66-0.33-13.96-2.78c-8.37-4.76-17.31-10.26-20.66-19.28c-1.63-4.39-1.49-9.91,1.95-13.08
		c5.31-4.89,14.02-1.23,20.93-3.3c2.58-0.77,4.98-2.37,7.68-2.35c4.02,0.04,7.1,3.68,8.61,7.41c1.51,3.72,2.07,7.84,4.11,11.3
		c1.86,3.15,5.03,6.21,4.21,9.77c-2.29-0.53-4.74-0.28-6.88,0.68c0.89-2.24,1.79-4.55,1.76-6.96c-0.04-2.41-1.24-4.97-3.48-5.86
		c-1.22-0.49-2.58-0.43-3.9-0.37c-3.38,0.16-6.75,0.33-10.13,0.49c-2.46,0.12-5.32,0.46-6.62,2.55c1.48,4.95,3.79,9.66,6.78,13.88
		c1.24,1.74,3.03,3.57,5.13,3.19c1.19-0.21,2.12-1.1,3.15-1.72s2.49-0.95,3.36-0.11c0.76,1.02,0.13,2.58-0.95,3.25
		c-1.08,0.67-2.42,0.69-3.7,0.69c-4.02-0.01-8.34-0.16-11.54-2.58c-3.2-2.42-4.22-8.01-0.91-10.28c3.1-2.13,7.26-0.07,10.41,1.98
		c2.64,1.71,4.52,3,7.59,3.38c1.94,0.24,6.01-0.58,5.19,2.8c0.93,0.07,1.94-0.39,2.3-1.33c0.36-0.93-0.29-2.18-1.29-2.21
		s-1.66,1.49-0.85,2.07c1.61-0.74,2.8-2.33,3.05-4.08c1.28-1.3,3.98,0.2,3.55,1.98s-3.52,1.87-4.06,0.12
		c2.63-0.86,5.61-0.61,8.06,0.67c0.07-1.28-0.81-2.55-2.03-2.93s-2.67,0.16-3.34,1.25c0.11,1.22,1.67,1.75,2.86,1.52
		s2.29-0.93,3.5-1.03c1.22-0.09,2.67,0.87,2.36,2.05c-0.12,0.44-0.46,0.79-0.85,1.04c-1.4,0.91-3.48,0.53-4.47-0.82
		c1.98-0.42,3.96-0.84,5.95-1.26c-0.96-1.14-2.56-1.7-4.02-1.4c1.95-0.43,4-0.42,5.94,0.04c-0.57,1.69-1.83,3.13-3.42,3.94
		c0.15,2.02,2.41,3.48,2.38,5.51c-0.02,1.45-1.2,2.58-2.29,3.53c-1.72,1.5-3.59,3.07-5.86,3.29c-2.8,0.28-5.61-1.93-6-4.72
		c-0.34,1.29-2.24,0.82-3.51,0.41c-3.09-0.99-6.79,0.52-8.31,3.39c-0.64-0.23-1.14-0.82-1.27-1.49c-1.21,1.21-2.1,2.73-2.56,4.38
		c-0.14,0.5-0.24,1.05-0.03,1.52c0.64,1.48,2.87,0.61,4.47,0.87c3.66,0.6,3.21,7.19,6.77,8.21c1.05,0.3,2.23,0,3.21,0.48
		c1.35,0.66,2.46,2.69,3.75,1.93c0.44-0.26,0.65-0.77,0.94-1.19c1.24-1.81,3.91-1.85,6.04-1.3c2.13,0.55,4.3,1.5,6.44,0.98
		c2.72-0.66,4.32-3.43,5.42-6.01c1.74-4.11,3.02-8.42,3.79-12.82c0.38-2.14,0.56-4.6-0.86-6.25c-1.47-1.72-4.4-1.78-6.09-0.29
		s-2.07,4.2-1.06,6.22c0.58,1.16,1.59,2.27,1.37,3.55c-0.11,0.62-0.5,1.15-0.88,1.66c-1.08,1.43-2.16,2.87-3.23,4.3
		c-0.79,1.05-1.84,2.22-3.15,2.06c-2.07-0.26-2.36-3.37-4.16-4.43c-1.61-0.96-3.8,0.09-5.52-0.69c-1.59-0.71-2.13-2.64-3.07-4.1
		s-3.33-2.45-4.26-0.98"/>
	<path class="st4" d="M102.3,281.83c-0.54-0.33-1.1-0.67-1.72-0.79c-0.62-0.11-1.34,0.05-1.71,0.57c-0.37,0.52-0.2,1.39,0.4,1.59
		c0.53,0.18,1.11-0.23,1.33-0.74c0.22-0.51,0.18-1.09,0.14-1.65c0.81-0.22,1.75,0.37,1.91,1.2c0.05,0.25,0.02,0.55-0.18,0.72
		c-0.12,0.1-0.28,0.14-0.44,0.17c-0.92,0.19-1.86,0.24-2.8,0.15c-0.29-0.03-0.58-0.07-0.82-0.24c-0.76-0.53-0.27-1.82,0.55-2.26
		c1.27-0.7,3.07-0.15,3.74,1.14c0.62-0.48,0.85-1.37,0.64-2.13s-0.8-1.37-1.5-1.73c-0.64-0.33-1.51-0.43-2,0.1
		c-0.59,0.65-0.09,1.81,0.74,2.09c0.83,0.28,1.75-0.1,2.44-0.65c0.55-0.44,1.22-1.04,1.85-0.73c0.23,0.11,0.39,0.32,0.53,0.54
		c0.28,0.42,0.53,0.87,0.74,1.33c0.05,0.11,0.09,0.23,0.06,0.34c-0.06,0.19-0.31,0.24-0.51,0.24c-1.26,0-2.52-0.5-3.44-1.37
		c0.18,1.26,1.14,2.42,2.39,2.68c1.25,0.26,2.67-0.53,2.97-1.77c0.09-0.39,0.08-0.82-0.13-1.16c-0.11-0.18-0.27-0.33-0.44-0.45
		c-0.74-0.5-1.88-0.33-2.39,0.41s-0.2,1.92,0.64,2.26c0.83,0.33,1.91-0.41,1.84-1.3c0.92,1.29,1.42,2.87,1.42,4.45
		c0,0.16-0.01,0.34-0.14,0.44c-0.11,0.09-0.28,0.08-0.42,0.06c-1.14-0.15-2.24-0.64-3.12-1.39c-0.61,0.49-0.61,1.53-0.07,2.1
		c0.55,0.57,1.49,0.64,2.18,0.27c0.69-0.37,1.14-1.12,1.26-1.9c0.05-0.35,0.05-0.72-0.08-1.05c-0.28-0.73-1.18-1.16-1.92-0.92
		c-0.75,0.24-1.22,1.12-1.01,1.88c0.06,0.23,0.18,0.45,0.37,0.59c0.55,0.43,1.48-0.06,1.56-0.76c0.07-0.7-0.56-1.34-1.25-1.43
		s-1.39,0.28-1.86,0.8c-0.47,0.53-0.74,1.19-0.97,1.86c-0.29,0.84-0.53,1.73-0.48,2.62c0.05,0.89,0.44,1.8,1.18,2.3
		c-1.58,0.2-3.42,1-4.59-0.08c-0.98-0.9-0.58-2.73,0.58-3.38s2.71-0.25,3.66,0.69c0.3,0.29,0.66,0.67,1.05,0.52
		c0.21-0.69,0.25-1.45-0.05-2.1s-1.01-1.14-1.72-1.03c-0.83,0.12-1.38,1.01-1.35,1.85s0.52,1.59,1.11,2.18
		c0.46,0.46,1.1,0.87,1.71,0.66c0.35-0.12,0.61-0.43,0.82-0.74c0.63-0.95,0.99-2.08,1.03-3.22c0.51-0.24,1.16,0.22,1.22,0.78
		s-0.35,1.1-0.86,1.33c-0.51,0.23-1.11,0.22-1.66,0.13c-0.12-0.02-0.25-0.05-0.33-0.14c-0.16-0.19-0.01-0.48,0.18-0.64
		c1.29-1.05,3.56,0.37,4.78-0.77c0.36-0.33,0.53-0.82,0.64-1.3c0.27-1.08,0.27-2.44-0.64-3.08c-0.79,0.66-1.07,1.87-0.65,2.81
		c0.46,0.09,0.93-0.22,1.15-0.63s0.26-0.9,0.24-1.37c-0.03-0.85-0.2-1.74-0.72-2.42c-0.52-0.68-1.44-1.1-2.25-0.84
		c-0.41,0.13-0.69,0.84-0.26,0.9c0.59-0.63,0.66-1.62,0.31-2.41c-0.35-0.78-1.07-1.35-1.86-1.68c-0.91-0.38-2-0.46-2.86,0.02
		s-1.38,1.61-0.99,2.51c0.64,0.06,1.15-0.68,1.01-1.3s-0.77-1.05-1.4-1.13c-0.63-0.07-1.27,0.14-1.84,0.43
		c-0.62,0.32-1.23,0.77-1.47,1.43c-0.23,0.66,0.08,1.54,0.76,1.69s1.34-0.84,0.82-1.3c1.02,0.9,0.96,2.69-0.01,3.66
		c-0.96,0.97-2.57,1.11-3.81,0.53c-0.66-0.31-1.28-1-1.07-1.69c0.21-0.67,1.06-0.89,1.75-0.81c0.69,0.08,1.38,0.36,2.07,0.25
		c-0.2-0.92-0.97-1.68-1.89-1.87s-1.93,0.21-2.48,0.97c0.02,0.82,0.91,1.36,1.72,1.47s1.66-0.05,2.46,0.15s1.56,0.99,1.3,1.77
		c-0.13,0.39-0.48,0.66-0.84,0.86c-1.85,1.03-4.4,0.54-5.75-1.09c0.9-0.19,1.82-0.38,2.73-0.21c0.9,0.16,1.79,0.77,2,1.66
		c0.07,0.29,0.07,0.6,0.2,0.86c0.37,0.77,1.66,0.63,2.05-0.12s-0.01-1.73-0.7-2.23s-1.57-0.63-2.42-0.65
		c-0.83,2,0.32,4.57,2.35,5.29c0.8-1.57,1.53-3.19,2.17-4.83c1.26,0.88,1.54,2.87,0.58,4.06s-2.96,1.34-4.09,0.3
		c0.96-1.11,2.41-1.7,3.87-1.91c1.45-0.21,2.93-0.07,4.4,0.07c0.77-1.09,0.09-2.59-0.67-3.68c-0.67-0.97-1.73-2.02-2.85-1.64
		c-1.09,0.65-1,2.57,0.15,3.11c0.71,0.33,1.55,0.16,2.29-0.1s1.47-0.61,2.25-0.61s1.64,0.47,1.75,1.25c0.04,0.31-0.04,0.63-0.19,0.9
		c-0.55,1.07-2.03,1.55-3.09,0.99c-0.06-0.31-0.11-0.63-0.17-0.94c1.26-1.39,3.58-1.65,5.11-0.56"/>
</g>
<g>
	<path class="st4" d="M179.3,321.61c-0.12,1.95-2.32,3.11-4.27,3.25s-3.95-0.33-5.85,0.16c1.04,3.02-0.52,6.7-3.41,8.05
		c-1.53,0.72-3.39,0.87-4.58,2.08c-0.69,0.7-1.07,1.69-1.84,2.31c-1.23,1-3.02,0.74-4.56,0.35c-2.44-0.62-5.2-1.87-5.63-4.35
		c-0.22-1.29,0.01-3.06-1.23-3.48c-0.39-0.13-0.81-0.06-1.22,0.02c-2.63,0.49-5.25,0.98-7.88,1.47c-2.1,0.39-4.55,1.08-5.25,3.09
		c-0.67,1.94,0.88,4.11,2.82,4.77c1.95,0.65,4.09,0.16,6.01-0.57c0.6-0.23,1.21-0.49,1.66-0.96c0.46-0.48,0.68-1.14,1.03-1.71
		c0.72-1.22,2.01-2.08,3.4-2.3c-0.34-0.73-0.26-1.64,0.21-2.3c-1.1-0.26-1.77,1.12-2.15,2.18c-0.54,1.48-1.35,2.86-2.38,4.05
		c-0.4,0.46-0.85,0.9-1.43,1.07c-0.52,0.15-1.08,0.05-1.61-0.05c-1.16-0.21-2.31-0.43-3.47-0.64c-2.2-0.41-4.77-1.13-5.48-3.24
		c0.99-1.58,2.19-3.3,4.03-3.63c2.29-0.41,4.54,1.58,6.81,1.07c2.25-0.5,3.2-3.84,1.55-5.45c-0.64-0.63-1.51-0.96-2.21-1.51
		c-0.98-0.78-1.58-1.93-2.38-2.89c-1.65-1.97-4.27-3.07-6.83-2.89c-0.05,0.38-0.19,0.75-0.41,1.07s-0.51,0.59-0.77,0.89
		c-1.72,1.96-1.7,5.21,0.04,7.14c1.05,1.16,2.63,1.93,3.15,3.4c-0.27,1.45-2.16,2.04-3.56,1.58c-1.4-0.46-2.45-1.59-3.59-2.53
		s-2.42-1.71-3.41-2.8c-0.99-1.09-1.66-2.63-1.24-4.04c2.96,0.07,5.91,0.77,8.59,2.04c-2.12,1.21-4.81-0.08-6.59-1.75
		c-0.64-0.61-1.27-1.34-1.35-2.22s0.68-1.87,1.55-1.69c-1.45-1.33-3.99-1.22-5.31,0.24c0.91,0.85,2.63,0.44,3.07-0.72
		c-1.32-0.09-2.65-0.19-3.97-0.28c0.01-1.32,1.47-2.07,2.25-3.13c1.27-1.73,0.64-4.16,1.1-6.26c0.44-2.02,1.89-3.65,3.28-5.17
		c-3.05,1.22-5.02,4.69-4.5,7.94c0.11,0.68,0.32,1.35,0.73,1.9c0.79,1.05,2.15,1.46,3.41,1.81c2.34,0.64,4.67,1.28,7.01,1.92
		c0.69,0.19,1.51,0.36,2.07-0.1c-0.33-2.08-2.69-3.31-4.8-3.24c-2.11,0.06-4.06,1.04-6.05,1.77c-0.51,0.19-1.06,0.36-1.6,0.26
		c-0.54-0.1-1.05-0.57-0.99-1.12c0.02-0.26,0.17-0.49,0.32-0.7c1.82-2.44,5.54-2.61,8.35-1.44s5.06,3.34,7.61,5.01
		c0.71,0.46,1.45,0.9,1.97,1.57s0.75,1.64,0.3,2.36c-0.89-0.1-1.34-1.42-0.7-2.04c0.63,0.71,1.29,1.49,1.37,2.44
		s-0.76,2.01-1.68,1.76c-0.33-0.09-0.61-0.33-0.83-0.59c-1.34-1.56-1.19-4.17,0.31-5.57c0.19-0.18,0.42-0.35,0.68-0.35
		c0.22-0.01,0.43,0.1,0.62,0.23c2.15,1.45,1.96,4.87,3.88,6.63c0.71,0.65,1.68,1.02,2.29,1.77c0.58,0.71,0.77,1.64,1.02,2.52
		c0.79,2.75,2.5,5.31,4.99,6.71c2.49,1.41,5.79,1.48,8.13-0.16c0.94-0.67,1.7-1.57,2.59-2.3c1.4-1.14,3.16-1.89,4.22-3.34
		c1.63-2.24,1.11-5.45,2.41-7.9c-0.2,2.11,0.75,4.43-0.33,6.25c-1.36,2.28-4.77,2.02-6.98,3.49c-1.08,0.72-1.86,1.87-3.02,2.45
		c-1.5,0.75-3.34,0.39-4.84-0.37s-2.77-1.89-4.2-2.76c-1.04-0.64-2.2-1.18-2.89-2.18c-0.7-1-0.65-2.65,0.44-3.18
		c2.66,1.18,5.76,1.31,8.51,0.37c1.57-0.54,3.56-1.32,4.68-0.1c-0.42,1.88-1.97,3.47-3.84,3.92s-3.98-0.25-5.2-1.74
		c-0.37-0.45-0.68-1.02-0.61-1.61c0.16-1.4,2.28-2.15,2.04-3.54c-1.4,0.4-2.74,1.03-3.94,1.84c-0.17,0.11-0.34,0.24-0.41,0.42
		c-0.26,0.63,0.68,1.03,1.36,1.03c5.36,0.03,10.7-1.96,14.73-5.49c3.49,1.91,7.5,3.88,11.29,2.67c1.2-0.38,2.28-1.07,3.22-1.89
		c2.68-2.34,4.25-6.28,2.87-9.55c-4.31,1.22-8.16,3.62-11.96,6c-1.68,1.05-3.36,2.11-5.05,3.16c0.23-2.03,1.48-3.84,3.05-5.15
		s3.44-2.2,5.29-3.08c2.9-1.37,5.8-2.75,8.71-4.12c0.13,2.56-1.36,4.88-2.79,7.01c-0.26,0.38-0.51,0.76-0.77,1.15
		c-0.24,0.35-0.48,0.71-0.84,0.95c-0.51,0.33-1.15,0.35-1.7,0.61c-0.87,0.41-1.39,1.36-2.26,1.76c-1.02,0.48-2.22,0.1-3.34,0
		c-1.13-0.1-2.55,0.39-2.63,1.52c-0.01,0.19,0.02,0.4,0.14,0.55c0.23,0.27,0.65,0.25,1,0.2c3.27-0.49,6.44-1.68,9.21-3.49
		c0.68-0.44,1.35-0.94,1.74-1.64c0.45-0.81,0.47-1.79,0.45-2.72c-0.07-2.86-0.81-6.28-3.49-7.28c-0.35-0.13-0.72-0.21-1.09-0.17
		c-0.75,0.09-1.34,0.67-1.86,1.22c-1.07,1.13-2.15,2.25-3.22,3.38c-1.04,1.09-2.45,2.27-3.86,1.76c-0.82-0.3-1.33-1.08-1.93-1.72
		s-1.5-1.19-2.3-0.83c-0.36,3.13-0.73,6.28-0.52,9.43c1.09-2.21,2.19-4.41,3.28-6.62c0.28-0.56,0.79-1.22,1.37-1
		c-0.03,2.27-0.84,4.44-1.63,6.56c-0.72,1.93-2.04,4.25-4.09,3.99c1.17-2.21,2.35-4.42,3.52-6.63c0.51-0.97,1.06-1.97,1.94-2.63
		c1.05-0.79,2.41-0.97,3.62-1.49c2.46-1.06,4.06-3.43,5.52-5.68c0.61-0.93,1.24-1.98,1.1-3.08c-0.11-0.8-0.6-1.48-1.08-2.12
		c-0.83-1.11-1.77-2.3-3.12-2.64c-2.76-0.68-4.88,2.45-7.54,3.43c-0.53-1.1,0.55-2.4,1.74-2.66s2.41,0.16,3.61,0.38
		c1.69,0.32,3.64,0.35,4.79,1.63c1.42,1.58,0.34,4.58-1.76,4.9c-0.78,0.12-1.58-0.08-2.37-0.11c-2.47-0.09-4.88,1.72-5.49,4.12
		c-4.35,0.77-7.91-3.75-12.29-4.34c-0.08,0.55,0.05,1.14,0.36,1.6c1.16,0.19,2.44-0.83,3.44-0.22c0.87,0.53,0.77,1.86,1.42,2.64
		c0.75,0.9,2.27,0.73,3.15-0.05s1.29-1.94,1.65-3.05c0.47-1.41,0.93-2.83,1.4-4.24c0.43-1.3,0.86-2.73,0.4-4.02
		c-0.46-1.29-2.26-2.15-3.26-1.2c-0.44,0.42-0.6,1.05-0.74,1.64c-0.71,3.09-1.42,6.19-2.13,9.28c3.26,0,6.29-2.77,6.58-6.02
		c0.06-0.7,0.02-1.46,0.39-2.06c1.2-2,4.74-0.08,6.5-1.62c1.34-1.17,0.65-3.36-0.29-4.87c-0.77-1.23-1.64-2.4-2.6-3.48
		c-0.36-0.41-0.76-0.82-1.28-0.99c-0.61-0.2-1.26-0.03-1.88,0.13c-2.89,0.77-5.79,1.55-8.68,2.32c-0.91,0.24-1.97,0.64-2.17,1.56
		c-0.14,0.64,0.22,1.28,0.35,1.92c0.46,2.28-1.83,4.12-2.56,6.33c-0.5,1.5-0.24,3.14,0.01,4.7c-1.43-2.52-0.99-5.96,1.03-8.04
		c0.35-0.36,0.77-0.73,0.84-1.22c0.06-0.39-0.1-0.77-0.18-1.15c-0.21-0.95,0.04-1.95-0.12-2.91c-0.37-2.21-3.06-3.54-5.18-2.84
		s-3.47,3-3.46,5.24c0.01,1.64,0.62,3.2,1.22,4.72c0.77,1.95,1.55,3.9,2.32,5.84c0.28,0.7,0.66,1.49,1.39,1.64
		c1.1,0.23,1.85-1.22,1.62-2.32c-0.22-1.1-0.97-2.03-1.21-3.12c-0.22-1.04,0.04-2.2-0.44-3.15c-0.31-0.62-0.88-1.06-1.37-1.56
		c-1.34-1.38-2.06-3.33-1.93-5.25c-1.28,0.45-2.69,0.25-4.01,0.54c-0.93,0.2-1.78,0.63-2.67,0.97c-3.43,1.31-7.21,1.19-10.84,1.68
		c-0.58,0.08-1.17,0.18-1.69,0.44c-0.38,0.19-0.71,0.47-1,0.77c-1.84,1.96-1.87,4.95-1.79,7.64c0.04,1.48,0.12,3.06,0.95,4.29
		c0.88,1.3,2.42,1.94,3.82,2.64c2.22,1.11,4.29,2.54,6.62,3.37c2.34,0.83,5.1,0.97,7.16-0.42c-2.32,1.12-5.03-0.17-7.27-1.45
		c-4.36-2.48-9.02-5.34-10.76-10.04c-0.85-2.28-0.77-5.16,1.02-6.81c2.76-2.55,7.3-0.64,10.9-1.72c1.34-0.4,2.6-1.23,4-1.22
		c2.09,0.02,3.7,1.92,4.48,3.86c0.79,1.94,1.08,4.09,2.14,5.89c0.97,1.64,2.62,3.23,2.19,5.09c-1.19-0.27-2.47-0.15-3.59,0.35
		c0.46-1.17,0.93-2.37,0.91-3.63c-0.02-1.26-0.65-2.59-1.81-3.05c-0.64-0.25-1.35-0.23-2.03-0.19c-1.76,0.08-3.52,0.17-5.28,0.25
		c-1.28,0.06-2.77,0.24-3.45,1.33c0.77,2.58,1.97,5.03,3.53,7.23c0.64,0.9,1.58,1.86,2.67,1.66c0.62-0.11,1.1-0.57,1.64-0.9
		c0.54-0.32,1.3-0.49,1.75-0.06c0.39,0.53,0.07,1.35-0.5,1.69c-0.56,0.35-1.26,0.36-1.92,0.36c-2.09,0-4.34-0.08-6.01-1.34
		s-2.2-4.17-0.47-5.35c1.61-1.11,3.78-0.04,5.42,1.03c1.38,0.89,2.35,1.56,3.95,1.76c1.01,0.13,3.13-0.3,2.7,1.46
		c0.48,0.04,1.01-0.2,1.2-0.69c0.19-0.48-0.15-1.13-0.67-1.15s-0.86,0.78-0.44,1.08c0.84-0.38,1.46-1.21,1.59-2.13
		c0.67-0.68,2.07,0.1,1.85,1.03s-1.84,0.97-2.11,0.06c1.37-0.45,2.92-0.32,4.2,0.35c0.04-0.67-0.42-1.33-1.06-1.52
		c-0.64-0.2-1.39,0.08-1.74,0.65c0.06,0.63,0.87,0.91,1.49,0.79s1.19-0.49,1.83-0.54c0.63-0.05,1.39,0.46,1.23,1.07
		c-0.06,0.23-0.24,0.41-0.44,0.54c-0.73,0.47-1.81,0.28-2.33-0.42c1.03-0.22,2.06-0.44,3.1-0.66c-0.5-0.59-1.34-0.89-2.1-0.73
		c1.02-0.22,2.08-0.22,3.1,0.02c-0.3,0.88-0.95,1.63-1.78,2.05c0.08,1.05,1.26,1.81,1.24,2.87c-0.01,0.75-0.62,1.34-1.19,1.84
		c-0.89,0.78-1.87,1.6-3.05,1.72c-1.46,0.14-2.92-1.01-3.13-2.46c-0.18,0.67-1.17,0.43-1.83,0.22c-1.61-0.52-3.54,0.27-4.33,1.77
		c-0.34-0.12-0.6-0.43-0.66-0.78c-0.63,0.63-1.09,1.42-1.34,2.28c-0.07,0.26-0.12,0.54-0.02,0.79c0.33,0.77,1.5,0.32,2.33,0.45
		c1.91,0.31,1.67,3.75,3.53,4.28c0.55,0.16,1.16,0,1.67,0.25c0.7,0.34,1.28,1.4,1.96,1c0.23-0.13,0.34-0.4,0.49-0.62
		c0.65-0.94,2.04-0.96,3.14-0.68c1.11,0.29,2.24,0.78,3.35,0.51c1.42-0.34,2.25-1.79,2.82-3.13c0.91-2.14,1.57-4.39,1.98-6.68
		c0.2-1.12,0.29-2.4-0.45-3.26c-0.77-0.9-2.29-0.93-3.17-0.15s-1.08,2.19-0.55,3.24c0.3,0.6,0.83,1.18,0.71,1.85
		c-0.06,0.32-0.26,0.6-0.46,0.86c-0.56,0.75-1.12,1.49-1.68,2.24c-0.41,0.55-0.96,1.16-1.64,1.07c-1.08-0.13-1.23-1.75-2.17-2.31
		c-0.84-0.5-1.98,0.04-2.87-0.36c-0.83-0.37-1.11-1.38-1.6-2.14s-1.74-1.28-2.22-0.51"/>
	<path class="st4" d="M152.79,313.59c-0.28-0.17-0.57-0.35-0.9-0.41s-0.7,0.03-0.89,0.3s-0.11,0.72,0.21,0.83
		c0.28,0.09,0.58-0.12,0.69-0.38s0.09-0.57,0.07-0.86c0.42-0.12,0.91,0.19,0.99,0.62c0.02,0.13,0.01,0.29-0.09,0.37
		c-0.06,0.05-0.15,0.07-0.23,0.09c-0.48,0.1-0.97,0.12-1.46,0.08c-0.15-0.01-0.3-0.04-0.43-0.12c-0.4-0.28-0.14-0.95,0.28-1.18
		c0.66-0.36,1.6-0.08,1.95,0.59c0.32-0.25,0.44-0.71,0.33-1.11c-0.11-0.39-0.42-0.71-0.78-0.9c-0.33-0.17-0.79-0.22-1.04,0.05
		c-0.31,0.34-0.05,0.94,0.38,1.09c0.43,0.15,0.91-0.05,1.27-0.34c0.29-0.23,0.64-0.54,0.97-0.38c0.12,0.06,0.2,0.17,0.28,0.28
		c0.15,0.22,0.28,0.45,0.39,0.69c0.03,0.06,0.05,0.12,0.03,0.18c-0.03,0.1-0.16,0.12-0.26,0.12c-0.66,0-1.31-0.26-1.79-0.71
		c0.09,0.66,0.59,1.26,1.24,1.39c0.65,0.13,1.39-0.28,1.55-0.92c0.05-0.2,0.04-0.43-0.07-0.61c-0.06-0.09-0.14-0.17-0.23-0.23
		c-0.39-0.26-0.98-0.17-1.25,0.21c-0.26,0.39-0.1,1,0.33,1.17s1-0.21,0.96-0.68c0.48,0.67,0.74,1.49,0.74,2.32
		c0,0.08-0.01,0.18-0.07,0.23c-0.06,0.05-0.14,0.04-0.22,0.03c-0.6-0.08-1.17-0.33-1.62-0.72c-0.32,0.26-0.32,0.8-0.03,1.09
		c0.29,0.3,0.78,0.34,1.14,0.14c0.36-0.19,0.59-0.58,0.65-0.99c0.03-0.18,0.02-0.38-0.04-0.55c-0.15-0.38-0.61-0.61-1-0.48
		c-0.39,0.13-0.63,0.59-0.52,0.98c0.03,0.12,0.1,0.23,0.19,0.31c0.29,0.23,0.77-0.03,0.81-0.4c0.04-0.36-0.29-0.7-0.65-0.75
		s-0.73,0.15-0.97,0.42c-0.24,0.27-0.39,0.62-0.5,0.97c-0.15,0.44-0.28,0.9-0.25,1.36s0.23,0.94,0.61,1.2
		c-0.82,0.1-1.78,0.52-2.39-0.04c-0.51-0.47-0.3-1.42,0.3-1.76s1.41-0.13,1.91,0.36c0.15,0.15,0.35,0.35,0.55,0.27
		c0.11-0.36,0.13-0.76-0.03-1.09c-0.16-0.34-0.53-0.59-0.9-0.54c-0.43,0.06-0.72,0.53-0.7,0.96s0.27,0.83,0.58,1.14
		c0.24,0.24,0.57,0.45,0.89,0.34c0.18-0.06,0.32-0.22,0.43-0.39c0.33-0.5,0.52-1.08,0.54-1.68c0.27-0.13,0.6,0.11,0.63,0.41
		c0.03,0.29-0.18,0.57-0.45,0.69s-0.58,0.11-0.87,0.07c-0.06-0.01-0.13-0.03-0.17-0.07c-0.08-0.1,0-0.25,0.1-0.33
		c0.67-0.55,1.86,0.19,2.49-0.4c0.19-0.17,0.27-0.43,0.34-0.67c0.14-0.56,0.14-1.27-0.34-1.61c-0.41,0.35-0.56,0.97-0.34,1.46
		c0.24,0.05,0.48-0.11,0.6-0.33c0.12-0.21,0.13-0.47,0.13-0.71c-0.01-0.44-0.1-0.9-0.37-1.26c-0.27-0.35-0.75-0.57-1.17-0.44
		c-0.21,0.07-0.36,0.44-0.13,0.47c0.31-0.33,0.35-0.85,0.16-1.25s-0.56-0.71-0.97-0.88c-0.47-0.2-1.04-0.24-1.49,0.01
		c-0.45,0.25-0.72,0.84-0.51,1.31c0.33,0.03,0.6-0.35,0.53-0.68c-0.07-0.32-0.4-0.55-0.73-0.59s-0.66,0.08-0.96,0.23
		c-0.32,0.17-0.64,0.4-0.76,0.74s0.04,0.8,0.4,0.88c0.36,0.08,0.7-0.44,0.43-0.68c0.53,0.47,0.5,1.4,0,1.9s-1.34,0.58-1.98,0.27
		c-0.34-0.16-0.67-0.52-0.56-0.88c0.11-0.35,0.55-0.46,0.91-0.42c0.36,0.04,0.72,0.19,1.08,0.13c-0.1-0.48-0.51-0.88-0.99-0.98
		s-1.01,0.11-1.29,0.51c0.01,0.43,0.47,0.71,0.9,0.76c0.42,0.06,0.86-0.03,1.28,0.08s0.81,0.52,0.68,0.92
		c-0.07,0.2-0.25,0.35-0.44,0.45c-0.96,0.54-2.29,0.28-2.99-0.57c0.47-0.1,0.95-0.2,1.42-0.11c0.47,0.09,0.93,0.4,1.04,0.86
		c0.04,0.15,0.04,0.31,0.1,0.45c0.19,0.4,0.87,0.33,1.07-0.06c0.2-0.39-0.01-0.9-0.36-1.16c-0.36-0.26-0.82-0.33-1.26-0.34
		c-0.43,1.04,0.16,2.38,1.22,2.76c0.42-0.82,0.8-1.66,1.13-2.52c0.65,0.46,0.8,1.49,0.3,2.11s-1.54,0.7-2.13,0.15
		c0.5-0.58,1.26-0.89,2.01-1c0.76-0.11,1.53-0.04,2.29,0.04c0.4-0.57,0.05-1.35-0.35-1.92c-0.35-0.51-0.9-1.05-1.48-0.85
		c-0.57,0.34-0.52,1.34,0.08,1.62c0.37,0.17,0.81,0.08,1.19-0.05s0.77-0.32,1.17-0.32c0.41,0,0.86,0.25,0.91,0.65
		c0.02,0.16-0.02,0.33-0.1,0.47c-0.28,0.56-1.06,0.81-1.61,0.51c-0.03-0.16-0.06-0.33-0.09-0.49c0.65-0.73,1.87-0.86,2.66-0.29"/>
</g>
<g>
	<path class="st4" d="M192.82,265.21c-0.29-0.32-0.26-0.84-0.04-1.2s0.6-0.62,0.96-0.85c3.71-2.29,8.11-3.42,12.46-3.21
		c1.22,0.06,2.45,0.22,3.6,0.66c1.77,0.67,3.24,1.95,4.66,3.2c0.42,0.37,0.84,0.75,1.08,1.25c0.27,0.59,0.24,1.27,0.2,1.92
		c-0.13,2.06-0.25,4.12-0.38,6.17c-0.06,1.06-0.14,2.15-0.55,3.13c-0.34,0.81-0.9,1.51-1.54,2.12c-2,1.92-4.72,2.97-7.47,3.25
		c-1.3,0.13-2.65,0.1-3.84-0.43c-2.42-1.08-3.51-3.85-5.31-5.79c-1-1.08-2.27-1.95-3.02-3.22s-0.73-3.2,0.54-3.94
		c0.81-0.47,1.85-0.31,2.7,0.07s1.61,0.96,2.47,1.32c2.1,0.9,4.55,0.46,6.65-0.43c1.17-0.5,2.3-1.15,3.09-2.15
		c0.78-1,1.15-2.39,0.69-3.57c-0.3-0.76-0.91-1.35-1.54-1.88c-2.32-1.94-5.29-3.27-8.31-3.08s-6.01,2.13-6.89,5.03
		c-0.18,0.59-0.13,1.43,0.47,1.58c0.35,0.08,0.69-0.13,0.98-0.34c1.1-0.78,2.21-1.56,3.31-2.33c0.62-0.44,1.26-0.9,1.64-1.55
		c0.35-0.62,0.44-1.36,0.7-2.03c0.78-2,2.96-3.02,4.46-4.56c0.69-0.71,1.24-1.55,1.97-2.21c1.72-1.54,4.24-1.93,5.97-3.45
		c0.19-0.16,0.37-0.35,0.46-0.58c0.16-0.41,0-0.86-0.16-1.27c-0.31-0.8-0.79-1.73-1.64-1.77c-0.27-0.01-0.53,0.07-0.78,0.16
		c-2.91,1.03-5.43,3.01-7.41,5.39c-1.98,2.38-3.44,5.14-4.63,7.99c1.02,0.07,1.98-0.39,2.91-0.82c3.3-1.51,6.79-2.62,10.36-3.31
		c0.72-0.14,1.67-0.14,1.95,0.54c0.24,0.59-0.26,1.21-0.72,1.65c-2.67,2.51-5.65,4.69-8.86,6.46c-3.34,1.84-7.25,3.27-10.94,2.27
		c-0.53-0.14-1.08-0.37-1.35-0.84c-0.35-0.61-0.09-1.4,0.33-1.97s0.98-1.02,1.34-1.63c0.55-0.94,0.51-2.1,0.64-3.19
		c0.25-2.08,1.18-4.07,2.61-5.6c0.65-0.69,1.39-1.28,2.02-1.98c0.91-1.01,1.56-2.22,2.44-3.26c2.12-2.5,5.44-3.87,7.19-6.65
		c0.24-0.38,0.44-0.89,0.17-1.25c-2.08,0.01-3.53,1.97-4.94,3.5c-1.24,1.36-2.7,2.5-3.93,3.88c-1.38,1.55-2.44,3.37-3.41,5.21
		c-1.32,2.49-2.52,5.04-3.59,7.64c-0.5,1.22-0.97,2.45-1.45,3.68c-0.11,0.29-0.22,0.58-0.23,0.89c-0.02,1.29,1.68,1.87,2.25,3.02
		c0.39,0.79,0.21,1.78,0.69,2.52c0.42,0.65,1.22,0.92,1.95,1.2c3.93,1.54,7.05,4.99,8.19,9.05c0.21,0.74,0.46,1.63,1.2,1.86
		c0.28,0.09,0.59,0.06,0.88,0.02c1.16-0.16,2.31-0.47,3.39-0.94c-0.03-1.74-1.77-2.87-3.17-3.91c-1.59-1.18-2.97-2.64-4.05-4.3
		c-0.09-0.14-0.19-0.3-0.15-0.47c0.04-0.16,0.18-0.26,0.32-0.34c1.25-0.67,2.83-0.13,3.94,0.75c1.11,0.89,1.93,2.08,3.03,2.98
		c1.1,0.9,2.66,1.47,3.93,0.84c1.26-0.63,1.73-2.16,2.07-3.53c-4.85-0.58-9.55-2.42-13.51-5.3c0.4-0.36,1.02-0.29,1.54-0.18
		c3.69,0.77,7.36,2.58,11.06,1.84c0.29-0.06,0.61-0.15,0.76-0.41c0.12-0.2,0.1-0.45,0.08-0.68c-0.08-0.9-0.21-1.89-0.91-2.47
		c-0.38-0.32-0.88-0.45-1.37-0.56c-1.9-0.4-3.89-0.42-5.8-0.04c-1.9,0.38-3.7,1.13-5.6,1.54c-1.89,0.41-3.98,0.44-5.64-0.56"/>
	<path class="st4" d="M191.09,261.41c0.22-2.22,0.44-4.44,0.67-6.65c0.16-1.56,0.32-3.16,1.01-4.58c0.72-1.48,1.94-2.64,3.16-3.75
		c3.85-3.5,8.01-6.88,12.96-8.48c0.71-0.23,1.45-0.42,2.18-0.3c1.16,0.19,2.07,1.14,2.54,2.22s0.56,2.27,0.66,3.44
		c0.11,1.46,0.23,2.93,0.03,4.37c-0.15,1.13-0.48,2.26-0.33,3.39c0.24,1.73,1.62,3.26,1.41,4.99c-0.14,1.16-0.98,2.13-1.96,2.74
		c-0.64,0.4-1.43,0.79-1.56,1.53c-0.11,0.66,0.38,1.27,0.95,1.62s1.22,0.54,1.78,0.91c1.39,0.94,1.75,2.81,1.86,4.49
		c0.16,2.55-0.01,5.12-0.5,7.62"/>
	<path class="st4" d="M190.85,263.13c0.17-0.67-0.7-1.18-1.37-1.05c-0.82,0.15-1.49,0.88-1.56,1.71s0.48,1.67,1.27,1.93
		c0.36,0.12,0.75,0.13,1.08,0.3c0.57,0.31,0.77,1.02,0.94,1.65c0.85,3.22,2.22,6.3,4.02,9.1c0.23,0.36,0.77,0.73,1.01,0.38
		c0.08-0.12,0.08-0.27,0.07-0.41c-0.03-0.65-0.06-1.31-0.34-1.9c-0.29-0.6-0.8-1.06-1.21-1.59c-1.14-1.48-1.41-3.45-1.41-5.32
		c0-0.44,0.01-0.88-0.13-1.29c-0.12-0.34-0.33-0.65-0.55-0.94c-0.5-0.69-1.03-1.41-1.78-1.82s-1.79-0.42-2.37,0.21
		c-0.64,0.71-0.43,1.87,0.1,2.67c0.53,0.8,1.3,1.42,1.81,2.23c0.53,0.85,0.73,1.87,1.19,2.76c0.55,1.06,1.44,1.89,2.17,2.83
		c0.74,0.94,1.34,2.09,1.17,3.27c-1.39-1.67-1.57-3.99-2.28-6.03c-0.2-0.59-0.47-1.18-0.95-1.58s-1.23-0.53-1.73-0.16
		c-0.21,0.15-0.36,0.38-0.48,0.6c-0.95,1.65-1.22,3.66-2.41,5.14c-0.96,1.19-2.42,1.88-3.88,2.34c-1.4,0.44-2.93,0.69-4.32,0.22
		c-2.16-0.72-3.48-3.15-3.28-5.42s1.68-4.29,3.59-5.54s4.19-1.8,6.45-2.04c0.75-0.08,1.73-0.35,1.74-1.1c0-0.36-0.24-0.66-0.49-0.92
		c-1.92-2-4.59-3.06-7.17-4.07c-1.76-0.69-3.53-1.38-5.38-1.78c-1.86-0.41-3.77-0.52-5.68-0.61c-1.94-0.08-3.89-0.13-5.81,0.16
		c-1.1,0.17-2.2,0.45-3.12,1.09c-0.91,0.63-1.6,1.66-1.6,2.77c0,1.14,0.71,2.15,1.39,3.07c1.81,2.46,3.62,4.92,5.43,7.38
		c0.24,0.32,0.48,0.65,0.78,0.9c0.4,0.33,0.89,0.52,1.39,0.67c2.95,0.91,6.12,0.64,9.19,0.28c1.37-0.16,2.74-0.34,4.1-0.54
		c2.73-0.4,5.74-1.04,7.32-3.3c0.57-0.81,0.88-1.95,0.31-2.76c-0.4-0.57-1.14-0.81-1.83-0.78s-1.35,0.29-1.99,0.56
		c-2.43,1.02-4.85,2.19-6.76,3.99c-1.19,1.12-2.17,2.46-3.5,3.42c-0.69,0.5-1.48,0.9-1.97,1.6c-0.55,0.8-0.6,1.84-0.58,2.81
		c0.02,1.08,0.08,2.15,0.19,3.23c0.06,0.62,0.15,1.25,0.39,1.82c0.37,0.88,1.08,1.56,1.8,2.18c2.72,2.29,6,3.9,9.47,4.66
		c1.12,0.25,2.27,0.4,3.4,0.22c2.95-0.49,5.01-3.18,6.35-5.86c0.66-1.32,1.23-2.83,0.82-4.25c-0.25-0.86-0.83-1.59-1.25-2.38
		c-0.79-1.47-1.03-3.21-0.68-4.84c0.21-1,0.55-2.26-0.28-2.86c-0.63-0.45-1.57-0.11-2.02,0.51c-0.45,0.63-0.54,1.44-0.6,2.2
		c-0.35,4.48-0.24,9,0.45,13.43c0.13,0.82,0.27,1.69-0.04,2.46s-1.27,1.34-1.99,0.92c-0.84-0.49-0.65-1.73-0.46-2.68
		c0.53-2.57,0.27-5.3-0.72-7.73c-0.17-0.42-0.41-0.87-0.84-0.99c-0.58-0.17-1.13,0.36-1.44,0.88c-1.78,2.93-0.85,6.82-2.21,9.97
		c-0.12,0.28-0.31,0.59-0.61,0.64c-0.21,0.04-0.41-0.06-0.6-0.15c-0.69-0.34-1.37-0.68-2.06-1.02c-0.16-0.08-0.32-0.16-0.4-0.32
		c-0.09-0.19-0.03-0.41,0.04-0.61c1.51-4.4,4.69-8.25,5.26-12.87c0.02-0.17,0.04-0.36-0.06-0.51c-0.26-0.42-0.9-0.09-1.23,0.28
		c-2.67,2.99-4.06,7.03-7.05,9.69c-0.41,0.37-0.98,0.72-1.48,0.49c-0.67-0.32-0.52-1.32-0.19-1.98c0.96-1.91,2.53-3.45,4.06-4.95
		c1.43-1.39,2.9-2.81,4.73-3.59c0.54-0.23,1.26-0.37,1.66,0.06c0.41,0.43,0.22,1.14-0.06,1.66c-0.99,1.81-3.02,3.08-5.08,2.92
		s-3.95-1.89-4.08-3.95c-0.15-2.32,1.68-4.22,3.25-5.93c0.74-0.81,1.46-1.66,2.14-2.52c0.43-0.55,0.86-1.14,0.96-1.83
		c0.14-1-0.47-1.98-1.29-2.56c-0.82-0.58-1.83-0.83-2.81-1.05c-3.92-0.87-7.91-1.4-11.89-1.92c-1.61-0.21-3.24-0.42-4.84-0.15
		c-0.97,0.16-2.07,0.68-2.21,1.66c-0.11,0.75,0.42,1.44,0.94,2c0.71,0.75,1.47,1.44,2.29,2.07c0.26,0.2,0.54,0.4,0.86,0.45
		c0.35,0.05,0.7-0.08,1.02-0.22c1.7-0.72,3.26-1.74,5-2.36c4.31-1.52,9.48-0.17,12.49,3.26c-0.9,0.83-2.17,1.15-3.4,1.16
		s-2.43-0.26-3.65-0.44c-2.9-0.45-5.86-0.44-8.76,0.01c-0.69,0.11-1.47,0.3-1.81,0.91c-0.4,0.71-0.01,1.59,0.44,2.27
		c1.05,1.61,2.76,3.12,4.66,2.83c0.75-0.12,1.42-0.5,2.06-0.9c2.13-1.33,4.12-2.88,5.92-4.64c2.94,1.36,6.19,2.75,9.32,1.92
		c1.12-0.29,2.32-1.15,2.19-2.3c-0.07-0.68-0.61-1.22-1.2-1.55c-0.6-0.33-1.27-0.49-1.89-0.76c-2.29-0.96-3.88-3.19-6.21-4.03
		c-1.2-0.43-2.5-0.46-3.78-0.51c-3.11-0.12-6.22-0.41-9.3-0.88c-2.05-0.31-4.24-0.68-6.14,0.15"/>
</g>
<g>
	<path class="st4" d="M92.46,212.14c-0.28-0.36-0.19-0.91,0.09-1.27c0.27-0.36,0.69-0.59,1.1-0.79c4.14-2.02,8.9-2.75,13.46-2.07
		c1.28,0.19,2.56,0.49,3.72,1.07c1.8,0.9,3.21,2.39,4.57,3.86c0.4,0.43,0.81,0.87,1,1.43c0.22,0.65,0.12,1.36,0.01,2.04
		c-0.35,2.15-0.7,4.31-1.05,6.46c-0.18,1.11-0.37,2.25-0.91,3.24c-0.44,0.82-1.11,1.5-1.84,2.07c-2.3,1.81-5.28,2.63-8.21,2.64
		c-1.38,0.01-2.8-0.17-4-0.86c-2.43-1.39-3.3-4.42-4.99-6.65c-0.94-1.25-2.19-2.29-2.84-3.71s-0.43-3.45,0.99-4.1
		c0.9-0.41,1.98-0.13,2.84,0.36c0.86,0.49,1.6,1.18,2.47,1.65c2.12,1.17,4.74,0.97,7.05,0.25c1.28-0.4,2.55-0.97,3.48-1.94
		s1.47-2.39,1.1-3.68c-0.24-0.83-0.82-1.52-1.42-2.14c-2.24-2.28-5.23-4-8.43-4.12s-6.56,1.61-7.78,4.57
		c-0.25,0.6-0.29,1.5,0.32,1.71c0.36,0.13,0.74-0.07,1.07-0.25c1.24-0.7,2.49-1.41,3.73-2.11c0.7-0.39,1.42-0.81,1.89-1.47
		c0.44-0.62,0.6-1.39,0.95-2.06c1.03-2.03,3.44-2.86,5.17-4.34c0.8-0.68,1.47-1.51,2.31-2.12c1.97-1.44,4.66-1.58,6.65-3
		c0.21-0.15,0.42-0.33,0.54-0.56c0.21-0.41,0.09-0.91-0.03-1.36c-0.24-0.87-0.65-1.9-1.55-2.03c-0.28-0.04-0.56,0.02-0.84,0.09
		c-3.18,0.78-6.04,2.6-8.37,4.9c-2.33,2.29-4.16,5.05-5.72,7.93c1.06,0.18,2.13-0.21,3.15-0.56c3.64-1.24,7.43-2.05,11.26-2.39
		c0.77-0.07,1.77,0.03,1.99,0.77c0.19,0.65-0.4,1.25-0.93,1.66c-3.07,2.37-6.44,4.34-10.01,5.87c-3.72,1.59-7.98,2.68-11.76,1.24
		c-0.54-0.21-1.1-0.5-1.34-1.03c-0.31-0.68,0.05-1.49,0.55-2.04c0.5-0.55,1.14-0.98,1.58-1.58c0.68-0.94,0.76-2.16,1.01-3.29
		c0.48-2.16,1.67-4.16,3.34-5.62c0.75-0.66,1.6-1.2,2.33-1.87c1.06-0.97,1.88-2.18,2.91-3.17c2.5-2.41,6.14-3.51,8.27-6.25
		c0.29-0.38,0.56-0.9,0.31-1.3c-2.2-0.21-3.92,1.7-5.57,3.17c-1.45,1.3-3.11,2.35-4.54,3.67c-1.62,1.49-2.92,3.3-4.14,5.13
		c-1.65,2.48-3.18,5.04-4.58,7.67c-0.66,1.23-1.28,2.48-1.91,3.72c-0.15,0.29-0.3,0.59-0.33,0.92c-0.15,1.36,1.57,2.14,2.05,3.42
		c0.32,0.87,0.04,1.9,0.46,2.72c0.37,0.73,1.19,1.09,1.92,1.47c3.97,2.03,6.9,5.99,7.67,10.39c0.14,0.8,0.32,1.76,1.06,2.09
		c0.29,0.13,0.61,0.13,0.93,0.12c1.24-0.04,2.48-0.26,3.66-0.63c0.15-1.84-1.56-3.21-2.93-4.45c-1.55-1.41-2.84-3.1-3.81-4.96
		c-0.08-0.16-0.16-0.34-0.11-0.51c0.05-0.16,0.22-0.26,0.37-0.32c1.38-0.58,3,0.16,4.07,1.21s1.81,2.39,2.88,3.46
		c1.06,1.06,2.65,1.83,4.05,1.3c1.39-0.53,2.05-2.09,2.55-3.5c-5.05-1.12-9.8-3.56-13.67-7c0.46-0.33,1.1-0.2,1.65-0.03
		c3.81,1.2,7.48,3.49,11.45,3.1c0.31-0.03,0.66-0.1,0.84-0.35c0.15-0.2,0.15-0.46,0.16-0.71c0.01-0.95-0.03-2.02-0.7-2.7
		c-0.37-0.37-0.88-0.57-1.38-0.73c-1.96-0.63-4.05-0.85-6.1-0.65c-2.04,0.2-4.02,0.8-6.06,1.03s-4.24,0.04-5.88-1.18"/>
	<path class="st4" d="M91.03,207.96c0.47-2.31,0.93-4.62,1.4-6.94c0.33-1.63,0.67-3.3,1.54-4.71c0.91-1.48,2.32-2.58,3.72-3.62
		c4.42-3.28,9.16-6.4,14.54-7.56c0.77-0.17,1.57-0.29,2.33-0.09c1.2,0.32,2.06,1.42,2.44,2.6c0.38,1.18,0.36,2.45,0.33,3.69
		c-0.03,1.55-0.07,3.1-0.42,4.61c-0.28,1.17-0.75,2.33-0.7,3.53c0.07,1.85,1.36,3.6,0.96,5.4c-0.27,1.2-1.25,2.14-2.36,2.68
		c-0.71,0.35-1.59,0.68-1.8,1.45c-0.19,0.68,0.27,1.38,0.82,1.81c0.56,0.43,1.23,0.69,1.77,1.14c1.36,1.14,1.55,3.15,1.48,4.93
		c-0.1,2.7-0.55,5.39-1.33,7.97"/>
	<path class="st4" d="M90.6,209.74c0.25-0.68-0.61-1.31-1.33-1.25c-0.87,0.07-1.66,0.77-1.82,1.64c-0.16,0.86,0.33,1.81,1.13,2.16
		c0.36,0.16,0.78,0.21,1.11,0.43c0.57,0.39,0.71,1.15,0.82,1.83c0.56,3.48,1.67,6.87,3.28,10.01c0.21,0.4,0.73,0.85,1.02,0.51
		c0.1-0.12,0.11-0.28,0.12-0.43c0.04-0.68,0.07-1.39-0.16-2.03c-0.24-0.67-0.73-1.2-1.11-1.8c-1.05-1.68-1.12-3.78-0.92-5.75
		c0.05-0.46,0.1-0.93,0-1.38c-0.09-0.38-0.28-0.71-0.48-1.05c-0.45-0.78-0.93-1.59-1.68-2.11c-0.75-0.51-1.84-0.63-2.52-0.03
		c-0.75,0.68-0.64,1.92-0.17,2.82c0.47,0.9,1.22,1.63,1.67,2.54c0.47,0.95,0.57,2.04,0.96,3.03c0.47,1.17,1.31,2.14,1.99,3.2
		s1.2,2.34,0.89,3.57c-1.28-1.9-1.24-4.36-1.77-6.59c-0.15-0.64-0.37-1.3-0.83-1.77s-1.23-0.69-1.8-0.35
		c-0.24,0.14-0.41,0.36-0.57,0.58c-1.17,1.63-1.67,3.73-3.08,5.16c-1.14,1.15-2.75,1.73-4.34,2.05c-1.52,0.31-3.16,0.42-4.58-0.22
		c-2.2-0.99-3.33-3.69-2.88-6.06c0.44-2.37,2.22-4.35,4.36-5.46s4.6-1.46,7.01-1.47c0.8,0,1.86-0.19,1.94-0.98
		c0.04-0.38-0.19-0.72-0.42-1.02c-1.81-2.31-4.51-3.71-7.12-5.04c-1.78-0.91-3.58-1.82-5.48-2.44c-1.92-0.63-3.92-0.95-5.91-1.24
		c-2.03-0.29-4.09-0.55-6.14-0.44c-1.17,0.06-2.37,0.25-3.39,0.82c-1.03,0.57-1.86,1.58-1.98,2.75c-0.12,1.21,0.52,2.34,1.14,3.38
		c1.65,2.78,3.29,5.56,4.94,8.34c0.22,0.36,0.43,0.73,0.73,1.03c0.39,0.39,0.89,0.64,1.39,0.85c3.01,1.26,6.38,1.32,9.65,1.26
		c1.46-0.03,2.92-0.07,4.38-0.14c2.92-0.13,6.16-0.49,8.06-2.7c0.68-0.79,1.13-1.97,0.61-2.87c-0.36-0.64-1.12-0.97-1.85-1.01
		s-1.45,0.17-2.15,0.38c-2.66,0.81-5.33,1.8-7.54,3.49c-1.37,1.05-2.55,2.36-4.04,3.23c-0.78,0.45-1.66,0.79-2.24,1.48
		c-0.67,0.78-0.82,1.87-0.91,2.9c-0.1,1.14-0.14,2.28-0.14,3.42c0,0.66,0.02,1.33,0.22,1.96c0.3,0.96,0.97,1.76,1.67,2.48
		c2.63,2.69,5.91,4.74,9.48,5.91c1.15,0.38,2.35,0.66,3.55,0.59c3.16-0.2,5.61-2.82,7.3-5.5c0.83-1.32,1.59-2.85,1.32-4.39
		c-0.17-0.94-0.7-1.76-1.07-2.64c-0.67-1.63-0.75-3.49-0.21-5.17c0.33-1.03,0.82-2.33,0.01-3.04c-0.61-0.54-1.64-0.28-2.18,0.33
		s-0.72,1.45-0.87,2.26c-0.84,4.68-1.2,9.45-0.94,14.19c0.05,0.88,0.11,1.8-0.3,2.58s-1.48,1.27-2.19,0.76
		c-0.83-0.61-0.51-1.89-0.2-2.88c0.82-2.65,0.84-5.55,0.05-8.21c-0.14-0.45-0.34-0.95-0.78-1.13c-0.6-0.24-1.22,0.26-1.61,0.77
		c-2.18,2.9-1.61,7.1-3.38,10.27c-0.16,0.29-0.38,0.59-0.71,0.61c-0.22,0.02-0.43-0.11-0.62-0.23c-0.69-0.43-1.37-0.86-2.06-1.29
		c-0.16-0.1-0.32-0.21-0.39-0.38c-0.08-0.21,0.01-0.44,0.1-0.64c2.05-4.48,5.81-8.2,6.9-13c0.04-0.18,0.08-0.38,0-0.55
		c-0.23-0.47-0.94-0.19-1.33,0.16c-3.13,2.86-5.01,6.97-8.44,9.46c-0.47,0.34-1.11,0.66-1.61,0.36c-0.68-0.41-0.41-1.44,0.01-2.11
		c1.22-1.91,3.02-3.37,4.8-4.78c1.65-1.31,3.35-2.66,5.36-3.29c0.6-0.19,1.36-0.26,1.75,0.24c0.38,0.5,0.12,1.22-0.24,1.74
		c-1.23,1.8-3.51,2.92-5.66,2.54c-2.15-0.38-3.97-2.4-3.89-4.59c0.09-2.46,2.21-4.27,4.05-5.91c0.87-0.78,1.71-1.59,2.52-2.43
		c0.51-0.53,1.03-1.11,1.2-1.82c0.25-1.03-0.29-2.13-1.09-2.83c-0.81-0.7-1.84-1.06-2.85-1.4c-4.04-1.33-8.18-2.31-12.32-3.28
		c-1.67-0.39-3.37-0.78-5.08-0.66c-1.04,0.07-2.25,0.5-2.5,1.51c-0.19,0.78,0.29,1.56,0.78,2.2c0.67,0.86,1.4,1.67,2.19,2.42
		c0.25,0.24,0.53,0.48,0.86,0.56c0.36,0.09,0.74-0.01,1.1-0.12c1.86-0.58,3.62-1.49,5.51-1.96c4.7-1.15,10,0.82,12.81,4.75
		c-1.03,0.78-2.41,0.98-3.7,0.87c-1.29-0.12-2.54-0.53-3.79-0.85c-3-0.77-6.13-1.08-9.22-0.91c-0.74,0.04-1.57,0.16-2,0.77
		c-0.49,0.7-0.17,1.68,0.23,2.44c0.94,1.8,2.58,3.57,4.61,3.47c0.8-0.04,1.55-0.38,2.27-0.73c2.38-1.17,4.64-2.6,6.72-4.26
		c2.95,1.74,6.23,3.55,9.61,3.01c1.21-0.19,2.56-0.96,2.55-2.19c-0.01-0.72-0.51-1.35-1.11-1.76c-0.59-0.41-1.28-0.65-1.92-0.99
		c-2.31-1.25-3.75-3.77-6.12-4.9c-1.22-0.58-2.59-0.74-3.93-0.93c-3.26-0.45-6.5-1.09-9.7-1.9c-2.13-0.54-4.39-1.16-6.48-0.48"/>
</g>
<g>
	<path d="M82.78,317.72c0.04,0.01,0.08,0.04,0.13,0.08l0.23,1.27c-0.2-0.44-0.42-0.87-0.67-1.27
		C82.67,317.72,82.76,317.72,82.78,317.72 M128.87,351.38v1.41c7.16,0.62,14.45,1.57,21.66,2.81c0.11,0.02,0.23,0.06,0.35,0.1
		c0.44,0.14,0.99,0.31,1.6,0.31c0.66,0,1.25-0.2,1.72-0.57c0.63,0.96,1.68,1.19,2.28,1.32l1.13,0.25c2.49,0.54,4.87,1.06,7.16,1.83
		c-0.17,0.03-0.34,0.05-0.51,0.08c-2.72,0.43-5.28,0.83-7.89,0.83c-0.34,0-0.68-0.01-1.03-0.02c-0.08,0-0.16-0.01-0.24-0.01
		c-0.8,0-1.44,0.17-1.97,0.45l0.04-0.24l0.36-1.97l-1.98-0.34l-14.11-2.41l-6.5-1.11l-1.98-0.34l-0.31,1.98l-0.01,0.05
		c-1.33-0.6-2.63-1.35-3.81-2.31c-0.4-0.33-0.71-0.85-0.84-1.41l0.11-0.01c1.03-0.1,2-0.26,2.94-0.41
		C127.68,351.55,128.28,351.45,128.87,351.38 M78.6,426.87c1.03,1.06,2.06,2.11,3.08,3.16l0.07,0.08c-1.31-0.82-2.65-1.6-4-2.36
		c0.29-0.21,0.56-0.48,0.79-0.79C78.56,426.93,78.58,426.9,78.6,426.87 M68.96,309.12c-5.98,0-11.65,2.93-15.56,8.48
		c-2.87,4.07-5.06,8.49-6.97,13.07c-3.08,7.4-5.81,14.87-6.64,22.92c-0.67,6.44,0.35,12.27,5.57,16.75c0.79,0.68,1.39,1.48,1.63,2.5
		c1.43,5.99,5.99,9.74,10.1,13.75c2.14,2.09,4.58,3.83,5.21,7.12c-2.01-0.43-3.44-0.7-4.48-0.7c-1.65,0-2.3,0.68-2.72,2.46
		c-1.09,4.55-4.9,6.51-7.69,9.31c-3.39,3.4-3.78,7.35-3.65,11.58c0.04,1.33,0.62,2.13,1.74,2.13c0.37,0,0.8-0.09,1.3-0.28
		c1.06-0.4,2.17-0.53,3.34-0.53c0.6,0,1.21,0.03,1.84,0.08c-0.62,1.48-1.61,2.02-2.7,2.58c-2.32,1.21-4.94,1.5-7.29,2.54
		c-4.24,1.87-5.03,5.77-1.73,8.98c1.77,1.73,2.36,3.89,2.83,6.14c0.22,1.01,0.88,2.33-0.43,2.95c-0.23,0.11-0.47,0.16-0.7,0.16
		c-0.82,0-1.61-0.6-2.31-1.12c-1.01-0.74-1.5-1.82-1.9-2.97c-0.29-0.82-0.18-1.87-1.2-2.33c-0.85,1.44-1.01,1.46-0.87,2.97
		c0.67,7-1.01,13.46-4.24,19.62c-0.68,1.29-1.08,2.73-1.54,4.12c-2.2,6.69-0.4,12.27,4.85,16.85c2.11,1.84,4.51,3.16,7.12,4.15
		c15.75,5.97,31.99,9.99,48.74,11.96c6.96,0.82,13.95,1.62,20.96,1.62c0.27,0,0.54,0,0.8,0c11.6-0.1,17.71-6.46,17.59-17.97
		c-0.05-4.9-1.1-9.65-2.45-14.34c-3.89-13.59-10.07-26.21-16.69-38.62c-5.36-10.04-9.32-20.57-11.7-31.67
		c-0.81-3.77-1.68-7.57-1.55-11.56c3.49,6.4,8.7,10.25,15.91,11.14c0.94,0.12,1.87,0.17,2.78,0.17c6.12,0,11.63-2.45,16.89-5.49
		c9.21-5.31,15.48-13.15,19.35-22.97c0.5-1.26,0.67-2.95,2.58-2.95c0.05,0,0.1,0,0.15,0c0.37,0.02,0.74,0.02,1.12,0.02
		c3.42,0,6.77-0.65,10.14-1.15c1.05-0.16,2.63,0.21,2.81-1.1c0.21-1.48-1.48-1.61-2.53-2.01c-3.19-1.23-6.55-1.89-9.88-2.63
		c-0.64-0.14-1.37-0.29-1.09-1.21c0.15-0.49,0.54-0.65,0.97-0.65c0.13,0,0.27,0.01,0.4,0.04c0.9,0.17,1.8,0.4,2.69,0.63
		c11.89,3.1,22.64,8.78,33.34,14.58c10.12,5.49,20.14,11.16,30.85,15.49c3.78,1.53,7.61,2.39,11.6,2.39c0.98,0,1.97-0.05,2.98-0.16
		c3.82-0.41,7.29-1.92,10.91-2.96c1.16-0.33,2.5-0.98,3.71-0.98c0.81,0,1.57,0.29,2.18,1.17c1.63,2.35-0.79,4.08-2.1,5.68
		c-1.92,2.34-4.34,4.26-6.24,6.61c-7.47,9.23-14.34,18.89-20.8,28.83c-11.25,17.32-22.49,34.66-33.41,52.19
		c-4.55,7.3-10.85,12.13-18.58,15.32c-9.75,4.02-19.8,5.9-30.1,5.9c-3.59,0-7.21-0.23-10.85-0.67c-3.29-0.4-6.52-1.31-9.87-1.31
		c-0.27,0-0.54,0.01-0.81,0.02c-6.13,0.28-9.89,4.03-10.17,10.09c-0.3,6.65,1.04,13.03,3.62,19.06c10,23.32,21.03,46.13,35.31,67.23
		c3.07,4.54,5.59,9.27,6.82,14.64c0.17,0.72,0.03,1.71,1.52,2.25c-0.24-4.14-1.47-7.84-3.28-11.13c-3.04-5.51-6.7-10.67-10-16.04
		c-10.01-16.32-18.21-33.58-26.21-50.93c-3.36-7.3-6.09-14.81-6.3-22.94c-0.18-6.91,3.21-10.82,9.13-10.82
		c1.06,0,2.2,0.12,3.41,0.38c5.7,1.2,11.37,1.78,17.01,1.78c7.85,0,15.66-1.12,23.48-3.25c12.91-3.52,22.94-10.54,29.67-22.14
		c2.76-4.77,5.51-9.56,8.53-14.17c8.25-12.6,16.4-25.27,24.68-37.85c5.87-8.93,12.16-17.47,18.74-25.85
		c2.43-3.09,5.77-5.4,7.76-8.88c0.85-1.48,1.69-2.97,0.59-4.61c-0.88-1.31-2.17-1.82-3.6-1.82c-0.35,0-0.7,0.03-1.06,0.08
		c-2.29,0.35-4.44,1.18-6.61,1.97c-3.45,1.25-6.94,1.95-10.42,1.95c-3.03,0-6.05-0.53-9.06-1.69c-8.52-3.29-16.65-7.42-24.66-11.81
		c-13.97-7.64-27.74-15.75-43.51-19.41c-1.39-0.32-1.94-0.93-1.77-2.49c0.27-2.55,0.41-5.14,0.25-7.69
		c-0.45-7.23-3.07-13.51-9.63-17.22c-5.6-3.16-11.24-4.89-16.89-4.89c-5.37,0-10.75,1.55-16.09,4.9c-4.41,2.76-8.19,6.27-11.4,10.34
		c-0.71,0.9-1.35,1.42-2.13,1.42c-0.5,0-1.06-0.21-1.74-0.66c-2-1.33-4.39-1.98-6.75-2.34c-2.31-0.35-2.95-1.48-2.93-3.71
		c0.05-4-0.66-7.9-3.17-11.19c-0.83-1.08-1.58-2.55-3.02-2.55c-0.45,0-0.96,0.14-1.57,0.48c-0.06,0.03-0.12,0.05-0.17,0.05
		c-0.38,0-0.7-0.68-0.96-1.07c-3.13-1.55-6.2-2.3-9.16-2.3c-5.15,0-9.98,2.28-14.28,6.68c-2.34,2.4-4.03,5.14-5.92,7.8
		c-3.43,7.18-5.79,14.64-6.45,22.63c-0.4,4.82,0.03,9.52,0.97,14.21c0.25,1.23,0.59,2.44,0.63,3.74c-3.25-2.23-4.2-5.56-4.43-9.16
		c-0.51-7.88,1.71-15.26,4.41-22.51c1.21-3.26,2.35-6.57,4.26-9.52c2.4-7.12,6.8-12.65,13.89-15.35c1.84-0.7,3.65-1.03,5.43-1.03
		c3.74,0,7.33,1.45,10.63,3.94c1.81-1.43-0.01-1.8-0.77-2.25C75.92,310.08,72.39,309.12,68.96,309.12L68.96,309.12z M47.52,365.6
		c-1.36-4.59-1.79-8.46-1.61-12.38c0.56-12.03,3.67-23.15,11.97-32.36c3.49-3.88,7.89-5.96,13.04-6.48c0.5-0.05,1-0.08,1.47-0.08
		c5.01,0,8.48,2.77,9.77,7.95c1.33,5.38,0.82,10.74-0.72,16.02c-0.43,1.46-0.83,2.93-1.27,4.5c0.01,0,0.01,0,0.02,0
		c1.74,0,1.76-2.05,3.42-2.05c0.04,0,0.08,0,0.11,0c-0.16,1.72-0.78,3.2-1.97,4.35c-5.31,5.16-11.7,8.52-18.66,10.86
		C57.34,357.87,51.29,359.24,47.52,365.6L47.52,365.6z M84.44,338.49c0.72-3.63,1.82-6.33,1.97-9.23c0.15-2.97-0.43-5.78-0.97-8.67
		c1.34,1.49,1.63,3.39,1.94,5.24c0.23,1.35,0.49,2.76,0.31,4.09c-0.4,3.04,0.91,4.37,3.86,4.65c2.11,0.2,4.13,0.9,6.08,1.74
		c1.02,0.44,2.08,0.85,2.19,2.19c1.31,0,1.86-1.05,2.56-1.87c3.35-3.92,7-7.54,11.27-10.48c4.78-3.29,10.47-4.74,16.02-4.74
		c7.81,0,15.34,2.88,19.65,7.55c5.49,5.95,5.99,13.12,4.77,20.64c-0.15,0.93-0.63,1.16-1.22,1.16c-0.35,0-0.75-0.08-1.13-0.15
		c-5.67-0.95-11.37-1.47-17.11-1.47c-1.35,0-2.71,0.03-4.07,0.09c-2.2,0.1-4.32,0.61-6.64,0.85c3.86-3.69,6.44-8.23,9.34-12.52
		c1.23-1.82,2.52-3.65,3.44-5.62c2.22-4.74-0.21-8.7-5.48-9.04c-0.44-0.03-0.88-0.04-1.32-0.04c-3.74,0-7.31,1.01-10.74,2.54
		c-6.56,2.93-11.69,7.62-15.9,13.3c-0.73,0.98-1.36,1.46-2.01,1.46c-0.59,0-1.18-0.4-1.86-1.18c-1.43-0.64-2.84-1.3-4.28-1.91
		c-1.51-0.64-3.01-1.04-4.54-1.04C88.6,336.04,86.57,336.73,84.44,338.49L84.44,338.49z M114.77,391.44
		c-11.2,0-17.08-9.34-18.06-18.16c-0.2-1.81-0.03-3.67-0.03-5.5c0.12-9.86,1.41-19.51,7.22-27.81c5.6-7.99,12.89-13.83,22.92-15.51
		c0.27-0.05,0.54-0.14,0.81-0.15c0.92-0.04,1.86-0.12,2.78-0.12c2.03,0,3.95,0.39,5.25,2.43c1.74,2.74-0.09,5.23-1.53,7.36
		c-3.49,5.15-6.46,10.69-11.17,14.97c-1.6,1.45-1.2,4.56,0.64,6.06c2.85,2.32,6.24,3.52,9.74,4.43c5.1,1.32,10.3,2.03,15.57,2.19
		c1.55,0.05,2.59,0.24,1.81,2.18c-6,14.88-16.42,24.9-32.6,27.37C116.95,391.36,115.84,391.44,114.77,391.44L114.77,391.44z
		 M57.98,385.53c-2.55-2.38-5.3-4.54-7.25-7.43c-1.15-1.7-2.76-3.33-1.26-5.69c0.41-0.64-0.11-1.46-0.45-2.08
		c-1.28-2.31-0.47-4.25,0.96-6.09c2.26-2.89,5.44-4.36,8.83-5.35c7.22-2.1,14.04-4.98,20.21-9.35c2.87-2.04,4.99-4.47,6.32-7.76
		c1.29-3.18,2.46-4.44,4.68-4.44c0.95,0,2.09,0.23,3.51,0.65c0.18,0.05,0.36,0.09,0.53,0.15c5.26,1.74,5.47,2.2,3.51,7.14
		c-1.71,4.32-2.29,8.9-2.58,13.47c-0.97,15.15,1.1,29.97,5.31,44.54c2.69,9.3,6.97,17.89,11.41,26.45
		c6.48,12.49,12.4,25.22,15.49,39.05c0.83,3.7,1.13,7.43,1,11.2c-0.31,8.91-5.21,13.84-14.24,14.17c-1.04,0.04-2.09,0.06-3.13,0.06
		c-7.35,0-14.65-0.9-21.94-1.81c-11.27-1.41-22.36-3.73-33.2-7.13c-4.2-1.32-8.36-2.78-12.54-4.16c-2.82-0.93-5.37-2.52-7.62-4.28
		c-4.97-3.89-6.05-9.18-4.32-15.11c0.31-1.06,0.64-2.11,1.08-3.12c2.63-6.06,5.68-12,4.8-19.13c1.4,1.27,2.75,2.33,4.46,2.78
		c0.45,0.12,0.85,0.18,1.21,0.18c1.37,0,2.04-0.87,1.88-2.63c-0.17-1.88-0.69-3.73-1.13-6.03c5.22,1.84,10.45,2.22,15.67,2.22
		c3.53,0,7.06-0.17,10.57-0.17c1.48,0,2.97,0.03,4.44,0.12c2.39,0.14,4.77,0.47,7.16,0.52c0.06,0,0.12,0,0.17,0
		c1.87,0,3.17-0.74,4.03-2.79c0.88-2.08-0.36-2.9-1.39-3.95c-6.48-6.64-13-13.22-18.6-20.66c-2.21-2.94-4.79-5.5-8.71-5.5
		c-0.46,0-0.95,0.04-1.45,0.11c-0.11,0.02-0.21,0.02-0.32,0.02c-0.76,0-1.61-0.35-2.72-0.56c1.94-2.18,2.8-4.42,3.68-6.63
		c0.59-1.48,1.38-2.44,2.57-2.44c0.53,0,1.15,0.19,1.86,0.61c0.39,0.23,0.85,0.35,1.3,0.46c0.38,0.09,0.78,0.2,1.15,0.2
		c0.42,0,0.81-0.14,1.12-0.58c0.52-0.76-0.01-1.45-0.44-2c-2.07-2.63-2.47-5.64-2.19-8.84c0.09-1.02,0.3-1.73,1.53-1.87
		c0.15-0.02,0.31-0.03,0.48-0.03c3.47,0,10.1,3.59,11.66,6.5c-0.29,0.26-0.58,0.34-0.88,0.34c-0.49,0-0.98-0.21-1.47-0.21
		c-0.03,0-0.05,0-0.08,0c-1.03,0-2.04,0.15-2.52,1.18c-0.58,1.24,0.25,2.08,1.09,2.85c1.73,1.58,4.45,2.39,7.21,2.39
		c2.14,0,4.31-0.49,6.06-1.51c8.51-4.94,9.74-14.52,2.69-21.31c-6.44-6.21-14.46-9.04-23.11-10.2c-0.52-0.07-1.03-0.1-1.51-0.1
		c-4.76,0-7.76,3.3-8.05,8.48c-0.21,3.85,0.8,7.45,2.09,11.01C57.06,382.77,57.61,384.1,57.98,385.53L57.98,385.53z M152.48,354.03
		c-0.51,0-1.15-0.3-1.62-0.38c-7.23-1.24-14.49-2.19-21.83-2.83c2.07-0.17,4.14-0.25,6.2-0.25c5.34,0,10.67,0.52,15.98,1.29
		c0.9,0.13,2.43,0.13,2.06,1.53C153.15,353.88,152.85,354.03,152.48,354.03L152.48,354.03z M151.09,360.31
		c-7.03-0.14-13.97-0.85-20.64-3.19c0.06-0.36,0.11-0.72,0.17-1.08c6.87,1.17,13.74,2.35,20.6,3.52
		C151.18,359.82,151.14,360.06,151.09,360.31L151.09,360.31z M59.83,385.71c-2.46-4.82-4.11-9.27-4.04-14.16
		c0.07-5.24,2.3-8.37,6.89-8.37c0.82,0,1.72,0.1,2.7,0.31c7.83,1.65,15.28,4.01,21.12,9.93c4.12,4.17,5.09,9.11,2.36,13.73
		c-2.55,4.31-6.12,6.57-10.26,6.57c-1.19,0-2.44-0.19-3.71-0.57c-0.53-0.16-1.06-0.36-1.52-0.64c-0.68-0.41-1.75-0.71-1.53-1.69
		c0.12-0.51,0.5-0.62,0.93-0.62c0.31,0,0.64,0.05,0.93,0.05c0.02,0,0.04,0,0.07,0c1.1-0.04,2.37,0.15,2.86-1.12
		c0.53-1.37-0.54-2.25-1.43-3c-2.69-2.28-5.68-4.03-9.13-4.98c-1.32-0.36-2.36-0.57-3.18-0.57
		C60.77,380.59,60.13,381.98,59.83,385.71L59.83,385.71z M54.72,405.23c0.55,0,1.17-0.01,1.96-0.01c0.33-0.09,0.65-0.13,0.97-0.13
		c1.52,0,2.86,0.96,4.12,2.4c4.88,5.57,9.84,11.06,14.78,16.58c0.46,0.51,0.84,1.09,0.39,1.71c-0.29,0.4-0.64,0.55-1,0.55
		c-0.41,0-0.84-0.2-1.23-0.42c-3.34-1.94-6.72-3.82-9.96-5.91c-2.82-1.82-5.7-3.35-9.11-3.59c-1.29-0.09-1.63-0.77-1.7-1.99
		c-0.14-2.55-0.21-5.13-1.33-7.52c-0.53-1.12-0.19-1.69,1-1.69c0.04,0,0.09,0,0.14,0C54.07,405.23,54.38,405.23,54.72,405.23
		L54.72,405.23z M46.47,416.62c-1.27,0-1.33-0.68-1.23-3.02c0.11-2.31,0.53-4.55,1.85-6.48c0.67-0.98,1.47-1.47,2.24-1.47
		c0.84,0,1.65,0.59,2.22,1.76c1.05,2.17,1.22,4.55,1.22,6.93c0,0.96-0.48,1.52-1.47,1.64c-1,0.13-1.99,0.28-2.98,0.44
		C47.53,416.53,46.92,416.62,46.47,416.62L46.47,416.62z M51.59,420.74c0.9-2.17,2.24-2.89,3.85-2.89c0.73,0,1.52,0.15,2.35,0.38
		c2.78,0.77,5.23,2.09,8.12,4.29c-4.09-1.2-7.78-1.91-11.55-1.91C53.44,420.61,52.52,420.66,51.59,420.74L51.59,420.74z
		 M56.06,434.25c-3.94,0-7.82-0.51-11.59-1.72c-1.43-0.46-2.68-1.14-3.63-2.37c-1.83-2.37-1.56-4.4,1.2-5.55
		c4.22-1.76,8.49-2.76,12.8-2.76c3.42,0,6.85,0.63,10.3,2.03c5.64,2.28,11.04,5.04,16.18,8.29c0.8,0.5,2.3,0.79,1.92,1.97
		c-0.18,0.56-0.65,0.68-1.2,0.68c-0.39,0-0.82-0.06-1.21-0.06c-0.12,0-0.23,0.01-0.33,0.02c-0.1,0.01-0.2,0.02-0.32,0.02
		c-0.2,0-0.46-0.01-0.86-0.01c-3.79-0.55-7.68-0.69-11.63-0.69c-3.71,0-7.47,0.13-11.22,0.16C56.33,434.25,56.2,434.25,56.06,434.25
		L56.06,434.25z"/>
</g>
</svg>
