<?xml version="1.0" encoding="utf-8"?>
<!-- Generator: Adobe Illustrator 25.0.0, SVG Export Plug-In . SVG Version: 6.00 Build 0)  -->
<svg version="1.1" id="Layer_1" xmlns="http://www.w3.org/2000/svg" xmlns:xlink="http://www.w3.org/1999/xlink" x="0px" y="0px"
	 viewBox="0 0 247 310" style="enable-background:new 0 0 247 310;" xml:space="preserve">
<g>
	<path d="M67.78,15.72c0.04,0.01,0.08,0.04,0.13,0.08l0.23,1.27c-0.2-0.44-0.42-0.87-0.67-1.27C67.67,15.72,67.76,15.72,67.78,15.72
		 M113.87,49.38v1.41c7.16,0.62,14.45,1.57,21.66,2.81c0.11,0.02,0.23,0.06,0.35,0.1c0.44,0.14,0.99,0.31,1.6,0.31
		c0.66,0,1.25-0.2,1.72-0.57c0.63,0.96,1.68,1.19,2.28,1.32l1.13,0.25c2.49,0.54,4.87,1.06,7.16,1.83
		c-0.17,0.03-0.34,0.05-0.51,0.08c-2.72,0.43-5.28,0.83-7.89,0.83c-0.34,0-0.68-0.01-1.03-0.02c-0.08,0-0.16-0.01-0.24-0.01
		c-0.8,0-1.44,0.17-1.97,0.45l0.04-0.24l0.36-1.97l-1.98-0.34l-14.11-2.41l-6.5-1.11l-1.98-0.34l-0.31,1.98l-0.01,0.05
		c-1.33-0.6-2.63-1.35-3.81-2.31c-0.4-0.33-0.71-0.85-0.84-1.41l0.11-0.01c1.03-0.1,2-0.26,2.94-0.41
		C112.68,49.55,113.28,49.45,113.87,49.38 M63.6,124.87c1.03,1.06,2.06,2.11,3.08,3.16l0.07,0.08c-1.31-0.82-2.65-1.6-4-2.36
		c0.29-0.21,0.56-0.48,0.79-0.79C63.56,124.93,63.58,124.9,63.6,124.87 M53.96,7.12c-5.98,0-11.65,2.93-15.56,8.48
		c-2.87,4.07-5.06,8.49-6.97,13.07c-3.08,7.4-5.81,14.87-6.64,22.92c-0.67,6.44,0.35,12.27,5.57,16.75c0.79,0.68,1.39,1.48,1.63,2.5
		c1.43,5.99,5.99,9.74,10.1,13.75c2.14,2.09,4.58,3.83,5.21,7.12c-2.01-0.43-3.44-0.7-4.48-0.7c-1.65,0-2.3,0.68-2.72,2.46
		c-1.09,4.55-4.9,6.51-7.69,9.31c-3.39,3.4-3.78,7.35-3.65,11.58c0.04,1.33,0.62,2.13,1.74,2.13c0.37,0,0.8-0.09,1.3-0.28
		c1.06-0.4,2.17-0.53,3.34-0.53c0.6,0,1.21,0.03,1.84,0.08c-0.62,1.48-1.61,2.02-2.7,2.58c-2.32,1.21-4.94,1.5-7.29,2.54
		c-4.24,1.87-5.03,5.77-1.73,8.98c1.77,1.73,2.36,3.89,2.83,6.14c0.22,1.01,0.88,2.33-0.43,2.95c-0.23,0.11-0.47,0.16-0.7,0.16
		c-0.82,0-1.61-0.6-2.31-1.12c-1.01-0.74-1.5-1.82-1.9-2.97c-0.29-0.82-0.18-1.87-1.2-2.33c-0.85,1.44-1.01,1.46-0.87,2.97
		c0.67,7-1.01,13.46-4.24,19.62c-0.68,1.29-1.08,2.73-1.54,4.12c-2.2,6.69-0.4,12.27,4.85,16.85c2.11,1.84,4.51,3.16,7.12,4.15
		c15.75,5.97,31.99,9.99,48.74,11.96c6.96,0.82,13.95,1.62,20.96,1.62c0.27,0,0.54,0,0.8,0c11.6-0.1,17.71-6.46,17.59-17.97
		c-0.05-4.9-1.1-9.65-2.45-14.34c-3.89-13.59-10.07-26.21-16.69-38.62c-5.36-10.04-9.32-20.57-11.7-31.67
		c-0.81-3.77-1.68-7.57-1.55-11.56c3.49,6.4,8.7,10.25,15.91,11.14c0.94,0.12,1.87,0.17,2.78,0.17c6.12,0,11.63-2.45,16.89-5.49
		c9.21-5.31,15.48-13.15,19.35-22.97c0.5-1.26,0.67-2.95,2.58-2.95c0.05,0,0.1,0,0.15,0c0.37,0.02,0.74,0.02,1.12,0.02
		c3.42,0,6.77-0.65,10.14-1.15c1.05-0.16,2.63,0.21,2.81-1.1c0.21-1.48-1.48-1.61-2.53-2.01c-3.19-1.23-6.55-1.89-9.88-2.63
		c-0.64-0.14-1.37-0.29-1.09-1.21c0.15-0.49,0.54-0.65,0.97-0.65c0.13,0,0.27,0.01,0.4,0.04c0.9,0.17,1.8,0.4,2.69,0.63
		c11.89,3.1,22.64,8.78,33.34,14.58c10.12,5.49,20.14,11.16,30.85,15.49c3.78,1.53,7.61,2.39,11.6,2.39c0.98,0,1.97-0.05,2.98-0.16
		c3.82-0.41,7.29-1.92,10.91-2.96c1.16-0.33,2.5-0.98,3.71-0.98c0.81,0,1.57,0.29,2.18,1.17c1.63,2.35-0.79,4.08-2.1,5.68
		c-1.92,2.34-4.34,4.26-6.24,6.61c-7.47,9.23-14.34,18.89-20.8,28.83c-11.25,17.32-22.49,34.66-33.41,52.19
		c-4.55,7.3-10.85,12.13-18.58,15.32c-9.75,4.02-19.8,5.9-30.1,5.9c-3.59,0-7.21-0.23-10.85-0.67c-3.29-0.4-6.52-1.31-9.87-1.31
		c-0.27,0-0.54,0.01-0.81,0.02c-6.13,0.28-9.89,4.03-10.17,10.09c-0.3,6.65,1.04,13.03,3.62,19.06c10,23.32,21.03,46.13,35.31,67.23
		c3.07,4.54,5.59,9.27,6.82,14.64c0.17,0.72,0.03,1.71,1.52,2.25c-0.24-4.14-1.47-7.84-3.28-11.13c-3.04-5.51-6.7-10.67-10-16.04
		c-10.01-16.32-18.21-33.58-26.21-50.93c-3.36-7.3-6.09-14.81-6.3-22.94c-0.18-6.91,3.21-10.82,9.13-10.82
		c1.06,0,2.2,0.12,3.41,0.38c5.7,1.2,11.37,1.78,17.01,1.78c7.85,0,15.66-1.12,23.48-3.25c12.91-3.52,22.94-10.54,29.67-22.14
		c2.76-4.77,5.51-9.56,8.53-14.17c8.25-12.6,16.4-25.27,24.68-37.85c5.87-8.93,12.16-17.47,18.74-25.85
		c2.43-3.09,5.77-5.4,7.76-8.88c0.85-1.48,1.69-2.97,0.59-4.61c-0.88-1.31-2.17-1.82-3.6-1.82c-0.35,0-0.7,0.03-1.06,0.08
		c-2.29,0.35-4.44,1.18-6.61,1.97c-3.45,1.25-6.94,1.95-10.42,1.95c-3.03,0-6.05-0.53-9.06-1.69c-8.52-3.29-16.65-7.42-24.66-11.81
		c-13.97-7.64-27.74-15.75-43.51-19.41c-1.39-0.32-1.94-0.93-1.77-2.49c0.27-2.55,0.41-5.14,0.25-7.69
		c-0.45-7.23-3.07-13.51-9.63-17.22c-5.6-3.16-11.24-4.89-16.89-4.89c-5.37,0-10.75,1.55-16.09,4.9c-4.41,2.76-8.19,6.27-11.4,10.34
		c-0.71,0.9-1.35,1.42-2.13,1.42c-0.5,0-1.06-0.21-1.74-0.66c-2-1.33-4.39-1.98-6.75-2.34c-2.31-0.35-2.95-1.48-2.93-3.71
		c0.05-4-0.66-7.9-3.17-11.19c-0.83-1.08-1.58-2.55-3.02-2.55c-0.45,0-0.96,0.14-1.57,0.48c-0.06,0.03-0.12,0.05-0.17,0.05
		c-0.38,0-0.7-0.68-0.96-1.07c-3.13-1.55-6.2-2.3-9.16-2.3c-5.15,0-9.98,2.28-14.28,6.68c-2.34,2.4-4.03,5.14-5.92,7.8
		c-3.43,7.18-5.79,14.64-6.45,22.63c-0.4,4.82,0.03,9.52,0.97,14.21c0.25,1.23,0.59,2.44,0.63,3.74c-3.25-2.23-4.2-5.56-4.43-9.16
		c-0.51-7.88,1.71-15.26,4.41-22.51c1.21-3.26,2.35-6.57,4.26-9.52c2.4-7.12,6.8-12.65,13.89-15.35c1.84-0.7,3.65-1.03,5.43-1.03
		c3.74,0,7.33,1.45,10.63,3.94c1.81-1.43-0.01-1.8-0.77-2.25C60.92,8.08,57.39,7.12,53.96,7.12L53.96,7.12z M32.52,63.6
		c-1.36-4.59-1.79-8.46-1.61-12.38c0.56-12.03,3.67-23.15,11.97-32.36c3.49-3.88,7.89-5.96,13.04-6.48c0.5-0.05,1-0.08,1.47-0.08
		c5.01,0,8.48,2.77,9.77,7.95c1.33,5.38,0.82,10.74-0.72,16.02c-0.43,1.46-0.83,2.93-1.27,4.5c0.01,0,0.01,0,0.02,0
		c1.74,0,1.76-2.05,3.42-2.05c0.04,0,0.08,0,0.11,0c-0.16,1.72-0.78,3.2-1.97,4.35c-5.31,5.16-11.7,8.52-18.66,10.86
		C42.34,55.87,36.29,57.24,32.52,63.6L32.52,63.6z M69.44,36.49c0.72-3.63,1.82-6.33,1.97-9.23c0.15-2.97-0.43-5.78-0.97-8.67
		c1.34,1.49,1.63,3.39,1.94,5.24c0.23,1.35,0.49,2.76,0.31,4.09c-0.4,3.04,0.91,4.37,3.86,4.65c2.11,0.2,4.13,0.9,6.08,1.74
		c1.02,0.44,2.08,0.85,2.19,2.19c1.31,0,1.86-1.05,2.56-1.87c3.35-3.92,7-7.54,11.27-10.48c4.78-3.29,10.47-4.74,16.02-4.74
		c7.81,0,15.34,2.88,19.65,7.55c5.49,5.95,5.99,13.12,4.77,20.64c-0.15,0.93-0.63,1.16-1.22,1.16c-0.35,0-0.75-0.08-1.13-0.15
		c-5.67-0.95-11.37-1.47-17.11-1.47c-1.35,0-2.71,0.03-4.07,0.09c-2.2,0.1-4.32,0.61-6.64,0.85c3.86-3.69,6.44-8.23,9.34-12.52
		c1.23-1.82,2.52-3.65,3.44-5.62c2.22-4.74-0.21-8.7-5.48-9.04c-0.44-0.03-0.88-0.04-1.32-0.04c-3.74,0-7.31,1.01-10.74,2.54
		c-6.56,2.93-11.69,7.62-15.9,13.3c-0.73,0.98-1.36,1.46-2.01,1.46c-0.59,0-1.18-0.4-1.86-1.18c-1.43-0.64-2.84-1.3-4.28-1.91
		c-1.51-0.64-3.01-1.04-4.54-1.04C73.6,34.04,71.57,34.73,69.44,36.49L69.44,36.49z M99.77,89.44c-11.2,0-17.08-9.34-18.06-18.16
		c-0.2-1.81-0.03-3.67-0.03-5.5c0.12-9.86,1.41-19.51,7.22-27.81c5.6-7.99,12.89-13.83,22.92-15.51c0.27-0.05,0.54-0.14,0.81-0.15
		c0.92-0.04,1.86-0.12,2.78-0.12c2.03,0,3.95,0.39,5.25,2.43c1.74,2.74-0.09,5.23-1.53,7.36c-3.49,5.15-6.46,10.69-11.17,14.97
		c-1.6,1.45-1.2,4.56,0.64,6.06c2.85,2.32,6.24,3.52,9.74,4.43c5.1,1.32,10.3,2.03,15.57,2.19c1.55,0.05,2.59,0.24,1.81,2.18
		c-6,14.88-16.42,24.9-32.6,27.37C101.95,89.36,100.84,89.44,99.77,89.44L99.77,89.44z M42.98,83.53c-2.55-2.38-5.3-4.54-7.25-7.43
		c-1.15-1.7-2.76-3.33-1.26-5.69c0.41-0.64-0.11-1.46-0.45-2.08c-1.28-2.31-0.47-4.25,0.96-6.09c2.26-2.89,5.44-4.36,8.83-5.35
		c7.22-2.1,14.04-4.98,20.21-9.35c2.87-2.04,4.99-4.47,6.32-7.76c1.29-3.18,2.46-4.44,4.68-4.44c0.95,0,2.09,0.23,3.51,0.65
		c0.18,0.05,0.36,0.09,0.53,0.15c5.26,1.74,5.47,2.2,3.51,7.14c-1.71,4.32-2.29,8.9-2.58,13.47c-0.97,15.15,1.1,29.97,5.31,44.54
		c2.69,9.3,6.97,17.89,11.41,26.45c6.48,12.49,12.4,25.22,15.49,39.05c0.83,3.7,1.13,7.43,1,11.2c-0.31,8.91-5.21,13.84-14.24,14.17
		c-1.04,0.04-2.09,0.06-3.13,0.06c-7.35,0-14.65-0.9-21.94-1.81c-11.27-1.41-22.36-3.73-33.2-7.13c-4.2-1.32-8.36-2.78-12.54-4.16
		c-2.82-0.93-5.37-2.52-7.62-4.28c-4.97-3.89-6.05-9.18-4.32-15.11c0.31-1.06,0.64-2.11,1.08-3.12c2.63-6.06,5.68-12,4.8-19.13
		c1.4,1.27,2.75,2.33,4.46,2.78c0.45,0.12,0.85,0.18,1.21,0.18c1.37,0,2.04-0.87,1.88-2.63c-0.17-1.88-0.69-3.73-1.13-6.03
		c5.22,1.84,10.45,2.22,15.67,2.22c3.53,0,7.06-0.17,10.57-0.17c1.48,0,2.97,0.03,4.44,0.12c2.39,0.14,4.77,0.47,7.16,0.52
		c0.06,0,0.12,0,0.17,0c1.87,0,3.17-0.74,4.03-2.79c0.88-2.08-0.36-2.9-1.39-3.95c-6.48-6.64-13-13.22-18.6-20.66
		c-2.21-2.94-4.79-5.5-8.71-5.5c-0.46,0-0.95,0.04-1.45,0.11c-0.11,0.02-0.21,0.02-0.32,0.02c-0.76,0-1.61-0.35-2.72-0.56
		c1.94-2.18,2.8-4.42,3.68-6.63c0.59-1.48,1.38-2.44,2.57-2.44c0.53,0,1.15,0.19,1.86,0.61c0.39,0.23,0.85,0.35,1.3,0.46
		c0.38,0.09,0.78,0.2,1.15,0.2c0.42,0,0.81-0.14,1.12-0.58c0.52-0.76-0.01-1.45-0.44-2c-2.07-2.63-2.47-5.64-2.19-8.84
		c0.09-1.02,0.3-1.73,1.53-1.87c0.15-0.02,0.31-0.03,0.48-0.03c3.47,0,10.1,3.59,11.66,6.5c-0.29,0.26-0.58,0.34-0.88,0.34
		c-0.49,0-0.98-0.21-1.47-0.21c-0.03,0-0.05,0-0.08,0c-1.03,0-2.04,0.15-2.52,1.18c-0.58,1.24,0.25,2.08,1.09,2.85
		c1.73,1.58,4.45,2.39,7.21,2.39c2.14,0,4.31-0.49,6.06-1.51c8.51-4.94,9.74-14.52,2.69-21.31c-6.44-6.21-14.46-9.04-23.11-10.2
		c-0.52-0.07-1.03-0.1-1.51-0.1c-4.76,0-7.76,3.3-8.05,8.48c-0.21,3.85,0.8,7.45,2.09,11.01C42.06,80.77,42.61,82.1,42.98,83.53
		L42.98,83.53z M137.48,52.03c-0.51,0-1.15-0.3-1.62-0.38c-7.23-1.24-14.49-2.19-21.83-2.83c2.07-0.17,4.14-0.25,6.2-0.25
		c5.34,0,10.67,0.52,15.98,1.29c0.9,0.13,2.43,0.13,2.06,1.53C138.15,51.88,137.85,52.03,137.48,52.03L137.48,52.03z M136.09,58.31
		c-7.03-0.14-13.97-0.85-20.64-3.19c0.06-0.36,0.11-0.72,0.17-1.08c6.87,1.17,13.74,2.35,20.6,3.52
		C136.18,57.82,136.14,58.06,136.09,58.31L136.09,58.31z M44.83,83.71c-2.46-4.82-4.11-9.27-4.04-14.16
		c0.07-5.24,2.3-8.37,6.89-8.37c0.82,0,1.72,0.1,2.7,0.31c7.83,1.65,15.28,4.01,21.12,9.93c4.12,4.17,5.09,9.11,2.36,13.73
		c-2.55,4.31-6.12,6.57-10.26,6.57c-1.19,0-2.44-0.19-3.71-0.57c-0.53-0.16-1.06-0.36-1.52-0.64c-0.68-0.41-1.75-0.71-1.53-1.69
		c0.12-0.51,0.5-0.62,0.93-0.62c0.31,0,0.64,0.05,0.93,0.05c0.02,0,0.04,0,0.07,0c1.1-0.04,2.37,0.15,2.86-1.12
		c0.53-1.37-0.54-2.25-1.43-3c-2.69-2.28-5.68-4.03-9.13-4.98c-1.32-0.36-2.36-0.57-3.18-0.57C45.77,78.59,45.13,79.98,44.83,83.71
		L44.83,83.71z M39.72,103.23c0.55,0,1.17-0.01,1.96-0.01c0.33-0.09,0.65-0.13,0.97-0.13c1.52,0,2.86,0.96,4.12,2.4
		c4.88,5.57,9.84,11.06,14.78,16.58c0.46,0.51,0.84,1.09,0.39,1.71c-0.29,0.4-0.64,0.55-1,0.55c-0.41,0-0.84-0.2-1.23-0.42
		c-3.34-1.94-6.72-3.82-9.96-5.91c-2.82-1.82-5.7-3.35-9.11-3.59c-1.29-0.09-1.63-0.77-1.7-1.99c-0.14-2.55-0.21-5.13-1.33-7.52
		c-0.53-1.12-0.19-1.69,1-1.69c0.04,0,0.09,0,0.14,0C39.07,103.23,39.38,103.23,39.72,103.23L39.72,103.23z M31.47,114.62
		c-1.27,0-1.33-0.68-1.23-3.02c0.11-2.31,0.53-4.55,1.85-6.48c0.67-0.98,1.47-1.47,2.24-1.47c0.84,0,1.65,0.59,2.22,1.76
		c1.05,2.17,1.22,4.55,1.22,6.93c0,0.96-0.48,1.52-1.47,1.64c-1,0.13-1.99,0.28-2.98,0.44C32.53,114.53,31.92,114.62,31.47,114.62
		L31.47,114.62z M36.59,118.74c0.9-2.17,2.24-2.89,3.85-2.89c0.73,0,1.52,0.15,2.35,0.38c2.78,0.77,5.23,2.09,8.12,4.29
		c-4.09-1.2-7.78-1.91-11.55-1.91C38.44,118.61,37.52,118.66,36.59,118.74L36.59,118.74z M41.06,132.25
		c-3.94,0-7.82-0.51-11.59-1.72c-1.43-0.46-2.68-1.14-3.63-2.37c-1.83-2.37-1.56-4.4,1.2-5.55c4.22-1.76,8.49-2.76,12.8-2.76
		c3.42,0,6.85,0.63,10.3,2.03c5.64,2.28,11.04,5.04,16.18,8.29c0.8,0.5,2.3,0.79,1.92,1.97c-0.18,0.56-0.65,0.68-1.2,0.68
		c-0.39,0-0.82-0.06-1.21-0.06c-0.12,0-0.23,0.01-0.33,0.02c-0.1,0.01-0.2,0.02-0.32,0.02c-0.2,0-0.46-0.01-0.86-0.01
		c-3.79-0.55-7.68-0.69-11.63-0.69c-3.71,0-7.47,0.13-11.22,0.16C41.33,132.25,41.2,132.25,41.06,132.25L41.06,132.25z"/>
</g>
</svg>
